<?xml version="1.0" standalone="no"?>
<!DOCTYPE svg PUBLIC "-//W3C//DTD SVG 1.1//EN" "http://www.w3.org/Graphics/SVG/1.1/DTD/svg11.dtd" >
<!--
2013-9-30: Created.
-->
<svg>
<metadata>
Created by iconfont
</metadata>
<defs>

<font id="iconfont" horiz-adv-x="1024" >
  <font-face
    font-family="iconfont"
    font-weight="500"
    font-stretch="normal"
    units-per-em="1024"
    ascent="896"
    descent="-128"
  />
    <missing-glyph />
    
    <glyph glyph-name="zan1" unicode="&#58884;" d="M510.340709-4.892171c-23.173792 0-247.254314 180.180685-332.157006 289.301965-58.338686 53.264111-105.562221 152.650679-105.562221 222.732827 0 148.765185 108.952434 269.77626 242.874563 269.77626 81.781608 0 151.191444-67.679425 194.013739-137.605008 42.822294 69.925582 112.207571 137.605008 194.013739 137.605008 133.922129 0 242.874563-121.011074 242.874563-269.77626 0-70.239737-47.445592-169.805384-106.055454-223.182059C754.630505 173.446563 534.862195-4.892171 510.340709-4.892171zM315.497069 730.9315c-108.570741 0-196.887182-100.397594-196.887182-223.788879 0-58.382689 42.059931-145.353482 91.864244-189.903118 1.033539-0.943488 2.022053-1.977028 2.874467-3.098571 83.937714-109.042485 251.138784-234.421031 297.17119-267.923052 48.054459 34.715663 213.05542 161.193239 294.611901 267.451308 0.899486 1.12359 1.888 2.178619 2.964518 3.142573 50.03251 44.663222 92.312452 131.813095 92.312452 190.33086 0 123.391285-88.316441 223.788879-196.885136 223.788879-70.487378 0-137.808646-75.135234-173.241646-149.597133-7.634888-16.033162-33.908274-16.033162-41.543162 0C453.303668 655.796266 385.983423 730.9315 315.497069 730.9315z"  horiz-adv-x="1024" />

    
    <glyph glyph-name="dengdai" unicode="&#58922;" d="M511.674077 832.555016c-247.539816 0-448.208115-200.650903-448.208115-448.208115 0-247.521396 200.668299-448.208115 448.208115-448.208115s448.208115 200.686718 448.208115 448.208115C959.882192 631.904113 759.213893 832.555016 511.674077 832.555016zM672.568511 154.153148c-14.570857-14.700817-38.498826-14.700817-53.06252 0L487.018537 287.358963c-9.893324 9.956769-8.998955 23.817452-8.998955 44.900629 0 21.120017-4.779863 265.212314-4.779863 265.212314 0 20.935822 16.752546 37.897122 37.414121 37.897122 20.662599 0 37.414121-16.9613 37.414121-37.897122l0-265.212314c0-1.093914 124.792191-124.818797 124.792191-124.818797C687.422823 192.742025 687.131181 168.887734 672.568511 154.153148z"  horiz-adv-x="1024" />

    
    <glyph glyph-name="bohao" unicode="&#58948;" d="M677.537174 225.504332c-38.276768 0-66.216097-33.103956-99.31903-33.103956-33.112142 0-182.100408 145.883555-182.100408 182.096315 0 36.20969 33.108049 53.798277 33.108049 91.043552 0 26.900673-99.324146 190.377932-140.708696 190.377932-41.387619 0-140.712789-73.460082-140.712789-140.712789 0-196.584284 362.124528-571.122539 587.67554-571.122539 62.077847 0 140.715859 65.183582 140.715859 140.711765C876.195699 110.658677 714.787566 225.504332 677.537174 225.504332zM794.101983 23.419777c-18.23327-17.114796-41.243333-28.172643-58.620096-28.172643-44.002167 0-99.764168 18.900465-161.258731 54.658877-60.017932 34.898835-122.626875 84.09735-181.060729 142.276401-57.408501 57.158814-106.276489 118.392434-141.320633 177.081091-34.094516 57.098439-52.871161 108.927875-52.871161 145.94086 0 11.141758 10.754948 32.379455 34.783201 54.711066 10.761088 10.001795 23.156396 19.191084 34.901905 25.874297 5.768377 3.28379 10.491958 5.458315 14.024411 6.850012 9.231245-8.067746 27.160593-27.242458 52.090379-64.593134 23.329335-34.95307 38.139645-64.161299 42.72201-75.837222-1.111311-3.580548-3.897773-8.380878-8.685823-16.235776-10.067286-16.516162-23.855314-39.134299-23.855314-71.476915 0-21.268396 10.304693-43.695175 34.456766-74.989925 19.532869-25.309432 43.047422-49.854455 59.334363-65.9879 22.697955-22.485107 46.127574-43.225477 65.972551-58.402131 31.469736-24.066115 52.764738-33.882692 73.503061-33.882692 28.480658 0 51.29834 11.888771 69.632917 21.441335 10.196223 5.311982 19.891026 10.364045 27.048029 11.44875 9.78997-3.343141 38.371936-17.503653 81.101109-47.324842 35.360346-24.678052 57.449433-43.962258 67.728544-54.381561C820.23927 55.537266 809.866015 38.217808 794.101983 23.419777z"  horiz-adv-x="1024" />

    
    <glyph glyph-name="31zhuanfa" unicode="&#58887;" d="M865.922728 312.788122c-16.276708 0-29.580712-13.246699-29.667693-29.727045l0-215.125569c0-17.992793-14.58723-32.637328-32.520671-32.637328L181.762717 35.29818c-17.935488 0-32.520671 14.645558-32.520671 32.637328L149.242046 603.844034c0 17.992793 14.586207 32.637328 32.520671 32.637328l291.230897 0c16.304338 0.029676 29.580712 13.363356 29.580712 29.724998 0 16.392342-13.276375 29.727045-29.610388 29.727045l-295.336402 0c-48.358381 0-87.721901-39.450501-87.721901-87.925538l0-544.205493c0-48.475038 39.36352-87.925538 87.721901-87.925538l630.239961 0c48.358381 0 87.720877 39.450501 87.720877 87.925538L895.588375 283.237085C895.501394 299.541423 882.19739 312.788122 865.922728 312.788122zM930.818761 557.816744l0 0.318248L727.07645 762.488217l-6.435573 6.259564-0.814552-0.844228c-4.511757 2.532683-9.606799 3.873214-14.876826 3.873214-16.974603 0-30.774911-13.829983-30.774911-30.832216 0-5.298679 1.338485-10.393721 3.873214-14.907525l-0.903579-0.931209 141.845589-142.224212-145.573493-0.057305C436.396091 553.273265 378.197598 406.624277 361.049033 178.949904c0-17.004279 13.800307-30.832216 30.772864-30.832216 13.858636 0 25.620517 9.229199 29.464055 21.893636l1.397836 8.181333c18.022469 215.329207 60.470233 321.567833 251.839749 342.937536l144.466276 0L683.433464 385.195222l-5.502317-7.744381c-1.951445-4.104481-2.969635-9.112542-2.969635-13.654998 0-17.002232 13.799284-30.832216 30.772864-30.832216 4.832052 0 10.160407 1.164522 14.439874 3.37691L929.954067 545.259754c1.860371 1.305739 4.140297 4.52506 4.140297 6.970762C934.093341 554.676218 932.679132 556.511006 930.818761 557.816744z"  horiz-adv-x="1024" />

    
    <glyph glyph-name="laba" unicode="&#58881;" d="M872.802928 140.00594 872.864326 140.00594 872.864326 140.375354ZM744.055658 703.200926c-4.814656 2.889817-9.601682 5.251607-15.442714 5.251607-14.262842 0-25.758664-11.559267-25.758664-25.805736 0-10.285251 6.088672-18.519796 14.6957-23.195282 94.679359-55.247278 158.344355-157.787676 158.344355-275.30416 0-117.424386-63.605643-219.931015-158.159136-275.18034-8.29492-4.538363-15.442714-13.050224-15.442714-23.583115 0-14.261818 11.559267-25.820062 25.791409-25.820062 5.716188 0 10.252505 2.202155 15.22475 5.063319 109.871363 64.133669 183.764304 183.143157 183.764304 319.520197C927.074995 520.214335 853.495186 638.989485 744.055658 703.200926zM773.946432 384.132006c0 79.96524-43.344181 149.739373-107.821681 187.289594-2.920516 1.52268-9.785877 4.520967-14.603603 4.520967-14.325263 0-25.914206-11.589966-25.914206-25.89988 0-9.616008 5.096065-18.176988 12.865006-22.666232 49.839105-28.307719 83.45983-81.829703 83.45983-143.244448 0-62.472843-34.801621-116.817566-86.070284-144.750755-7.457856-4.538363-12.397355-12.803607-12.397355-22.188348 0-14.325263 11.588943-25.943882 25.882484-25.943882 6.090718-0.031722 13.33061 3.542686 13.33061 3.542686C729.048873 231.828228 773.946432 302.705486 773.946432 384.132006zM541.3694 771.327536c-10.846022 5.219885-23.740704 3.790326-33.215496-3.712555-0.435928-0.358157-46.423309-36.914748-97.195669-74.296123-88.308255-65.081251-114.036219-75.925227-119.257128-77.649498l-110.6194 0c-0.63752 0-1.243317-0.062422-1.879813-0.093121l-56.504922 0c-14.231119 0-25.775037-11.543917-25.775037-25.775037l0-411.697573c0-14.261818 11.512195-25.761734 25.775037-25.761734l189.511191-0.027629c5.096065-1.865487 29.395494-13.0799 107.761306-76.999698 45.613874-37.162388 86.505189-73.485665 86.940095-73.829496 5.841032-5.218862 13.298887-7.92039 20.820188-7.92039 4.349051 0 8.729825 0.930185 12.862959 2.764973 11.277858 5.064342 18.517749 16.252149 18.517749 28.619828 0 0 0.031722 97.257068 0.031722 132.212184 0.808412 2.484587 1.213641 5.127787 1.213641 7.863085 0 2.792603-1.245364 578.026786-1.245364 578.026786C559.110459 755.107109 552.214399 766.075929 541.3694 771.327536zM508.308423 169.529347c0-1.494027-0.467651-94.617961-0.467651-94.617961-13.889335 11.745509-29.332049 24.64019-45.240367 37.507242-104.59008 84.702124-130.505309 91.816149-148.030451 91.816149-0.372483 0-0.683569-0.091074-1.025353-0.091074s-0.652869 0.091074-1.025353 0.091074L170.394297 204.234777c-18.037818 0-22.248723 5.128811-22.248723 23.246447L148.145573 543.440315c0 12.32163 1.461281 20.057825 16.298198 20.057825l128.065747 0c17.090237 0 43.315528 6.991228 157.787676 90.839915 20.383236 14.914688 40.330544 29.938869 57.544601 43.113937 0 0 0.373507-445.207781 0.467651-521.368368C507.779374 173.971519 508.308423 171.765271 508.308423 169.529347z"  horiz-adv-x="1024" />

    
    <glyph glyph-name="zhanghao" unicode="&#58907;" d="M719.124849-61.385836 303.01171-61.385836c-61.285808 0-110.966301 50.096978-110.966301 111.923092L192.045409 722.086042c0 61.826114 49.680493 111.925139 110.966301 111.925139l416.113139 0c61.286832 0 110.967324-50.099025 110.967324-111.925139l0-671.548786C830.092174-11.288858 780.411681-61.385836 719.124849-61.385836zM774.600325 722.086042c0 30.895661-24.839735 55.962569-55.475476 55.962569L303.01171 778.048611c-30.633694 0-55.482639-25.066909-55.482639-55.962569l0-27.981285 527.071254 0L774.600325 722.086042zM774.600325 638.142188 247.529071 638.142188l0-446.828698 527.071254 0L774.600325 638.142188zM774.600325 135.352967 247.529071 135.352967l0-84.815711c0-30.912034 24.848944-55.961546 55.482639-55.961546l416.113139 0c30.635741 0 55.475476 25.049512 55.475476 55.961546L774.600325 135.352967zM511.07135 22.555971c-22.973224 0-41.60149 18.790972-41.60149 41.971927 0 23.183002 18.628266 41.974997 41.60149 41.974997 22.971178 0 41.597397-18.790972 41.597397-41.974997C552.668747 41.346943 534.042527 22.555971 511.07135 22.555971z"  horiz-adv-x="1024" />

    
    <glyph glyph-name="jianhao2" unicode="&#58903;" d="M914.759505 339.2324 108.928387 339.2324c-24.714891 0-44.771693 20.056801-44.771693 44.76453 0 24.714891 20.056801 44.771693 44.771693 44.771693l805.831119 0c24.762987 0 44.771693-20.056801 44.771693-44.771693C959.531198 359.288179 939.522492 339.2324 914.759505 339.2324L914.759505 339.2324zM914.759505 339.2324"  horiz-adv-x="1024" />

    
    <glyph glyph-name="qunfengzhifuchenggong" unicode="&#59028;" d="M512.01844 896C229.22742 896 0 666.765204 0 383.988936c0-282.761516 229.22742-511.988936 512.01844-511.988936 282.768892 0 511.996312 229.22742 511.996312 511.988936C1024.014752 666.765204 794.787331 896 512.01844 896zM810.239788 537.716908 436.629629 164.210011c-3.031484-2.751201-6.483393-4.049355-10.134451-4.049355-3.997724 0-7.75942 1.556309-10.577004 4.381269L243.22683 337.240645c-2.82496 2.82496-4.381269 6.57928-4.381269 10.577004 0 3.990348 1.556309 7.744668 4.388645 10.569628 5.635168 5.642544 15.489336 5.642544 21.13188 0l161.841433-161.841433 362.605355 362.612731c5.731054 5.723678 15.703236 5.723678 21.434291 0C816.147863 553.235747 816.147863 543.624983 810.239788 537.716908z"  horiz-adv-x="1025" />

    
    <glyph glyph-name="shoucang" unicode="&#58909;" d="M735.330918 262.148063l52.797969-323.390504L511.503673 91.507662 234.875389-61.242441l52.798993 323.390504L64.670937 490.484211l308.262243 47.030339L511.503673 832.420983l138.564352-294.907456 308.264289-47.030339L735.330918 262.148063zM615.427449 488.445687 511.502649 711.986393 406.6292 488.445687l-241.596786-31.413937 178.590848-182.329165-39.587476-234.710628 207.464817 116.314562 204.845028-117.187484L679.353383 273.83171l176.869564 180.458471L615.427449 488.445687z"  horiz-adv-x="1025" />

    
    <glyph glyph-name="xin" unicode="&#58951;" d="M700.856275 740.457458c-74.768891 0-144.295384-72.696696-190.046381-127.260405C465.073224 667.773042 395.563104 740.457458 320.754305 740.457458c-134.789892 0-244.443291-105.780185-244.443291-235.799424 0-77.56968 39.277562-131.98808 70.844511-175.712931 91.752704-126.998439 322.464249-285.038872 332.234777-291.701618 9.410324-6.414083 20.424168-9.629311 31.401174-9.629311 11.005658 0 21.998013 3.215228 31.397081 9.629311 9.782807 6.662747 240.514819 164.703179 332.23887 291.701618 31.586392 43.723827 70.873164 98.143251 70.873164 175.712931C945.299567 634.678296 835.645145 740.457458 700.856275 740.457458L700.856275 740.457458zM700.856275 740.457458"  horiz-adv-x="1024" />

    
    <glyph glyph-name="wxbmingxingdianpu" unicode="&#58908;" d="M226.754932 715.782475l588.594469 0 0-41.488927-588.594469 0 0 41.488927ZM974.794833 529.747455c0 47.089481-25.272593 75.04109-65.482387 97.662297L909.312446 807.919942c0 19.429515-15.83157 35.217083-35.217083 35.217083L167.939385 843.137025c-19.385513 0-35.173081-15.787568-35.173081-35.217083l0-182.01445c-30.762631-24.378224-49.472761-56.399521-49.472761-96.158037 0-40.930201 19.564591-77.088726 49.472761-100.656491l0-430.731068c0-19.383466 15.787568-35.174104 35.173081-35.174104l706.154955 0c19.385513 0 35.217083 15.788591 35.217083 35.174104L909.311423 418.298154C948.170452 440.470129 974.794833 481.893564 974.794833 529.747455M866.68151 4.675742l-691.284269 0L175.397241 405.929452c10.611685-2.877537 25.056676-4.901637 36.570917-4.901637 43.805692 0 82.439594 22.081924 105.692181 55.588039 23.252587-33.506115 61.931514-55.588039 105.690134-55.588039 43.807738 0 82.440617 22.081924 105.737206 55.588039 23.209608-33.506115 61.888536-55.588039 105.693204-55.588039 43.715641 0 82.395592 22.081924 105.60213 55.588039 23.295566-33.506115 61.885466-55.588039 105.692181-55.588039 5.846148 0 14.939247 0.98749 20.605294 1.7519L866.680487 4.675742zM846.078263 442.514695c-45.515636 0-84.859713 41.71917-84.859713 87.23276 0 12.727882-8.061606 23.026436-20.745487 23.026436-12.769838 0-20.74344-10.299577-20.74344-23.026436 0-45.514613-39.434128-87.23276-84.947717-87.23276-45.603641 0-84.948741 41.71917-84.948741 87.23276 0 12.727882-8.06263 23.026436-20.74344 23.026436-12.771885 0-20.74344-10.299577-20.74344-23.026436 0-45.514613-39.389102-87.23276-84.99479-87.23276-45.559639 0-84.947717 41.71917-84.947717 87.23276 0 12.727882-7.970532 23.026436-20.74344 23.026436-12.727882 0-20.74344-10.299577-20.74344-23.026436 0-45.514613-39.3451-87.23276-84.948741-87.23276-45.559639 0-87.184665 41.71917-87.184665 87.23276 0 28.469402 9.824763 54.643528 33.885761 69.938885 6.882757 4.361331 15.585977 11.82635 15.585977 19.428491l0 0L174.255231 806.215114l693.567265 0 0-177.883363c-0.357134-9.312086 4.949732-18.304901 14.123672-22.038946 31.211862-12.681834 51.359738-42.814108 51.359738-76.546374C933.30693 484.232842 891.682927 442.514695 846.078263 442.514695"  horiz-adv-x="1024" />

    
    <glyph glyph-name="02bohaofill" unicode="&#58889;" d="M838.61376 852.40192c-247.1296 0-447.49568-200.36608-447.49568-447.49568 0-247.19744 200.36608-447.49568 447.49568-447.49568 247.19744 0 447.49568 200.29952 447.49568 447.49568C1286.10944 652.03584 1085.8112 852.40192 838.61376 852.40192zM1060.50688 224.68352c-9.86624-32.7936-52.97536-81.36704-92.43776-81.36704l-2.54976 0c-59.78368 3.13856-140.59136 62.42048-216.15488 158.22208l-27.80416 35.28832c-75.5648 95.82976-115.11424 189.55648-105.8368 250.46144 6.5024 42.96832 67.35232 79.20896 102.16448 79.20896 17.12512 0 23.40352-8.88576 25.5616-14.26688 19.59168-36.77312 43.95008-100.6784 44.1728-123.54944l0-1.56928-0.5888-1.65376c-4.40064-12.02432-14.0416-17.79712-22.64704-22.87104-11.38048-6.7264-17.71264-11.12832-18.52544-23.8528-0.13952-3.81184 2.99776-21.30176 52.77824-85.73952l21.30176-27.04768c50.0032-61.96992 65.69984-68.52864 69.37088-69.06112 12.02432-1.87648 17.79712 3.64288 26.3744 13.5936 6.58688 7.76448 14.12608 16.28416 26.45888 18.1632l1.56928 0.30848 1.4848-0.53248c21.83424-4.70912 77.44384-42.29504 109.11488-70.3232C1058.88256 254.95424 1066.78656 245.4528 1060.50688 224.68352z"  horiz-adv-x="1639" />

    
    <glyph glyph-name="saoyisao" unicode="&#58953;" d="M864 848l-697.6 0c-48 0-83.2-41.6-83.2-89.6l0-208c0-12.8 9.6-25.6 22.4-25.6s22.4 9.6 22.4 25.6l0 208c0 22.4 16 41.6 38.4 41.6l697.6 0c22.4 0 38.4-19.2 38.4-41.6l0-208c0-12.8 9.6-25.6 22.4-25.6s22.4 9.6 22.4 25.6l0 208C947.2 806.4 908.8 848 864 848zM924.8 214.4c-12.8 0-22.4-9.6-22.4-25.6l0-179.2c0-22.4-16-41.6-38.4-41.6l-697.6 0c-22.4 0-38.4 19.2-38.4 41.6L128 192c0 12.8-9.6 25.6-22.4 25.6s-22.4-9.6-22.4-25.6l0-179.2c0-51.2 38.4-89.6 83.2-89.6l697.6 0c48 0 83.2 41.6 83.2 89.6L947.2 192C947.2 204.8 937.6 214.4 924.8 214.4zM921.6 352c12.8 0 22.4 9.6 22.4 22.4 0 12.8-9.6 22.4-22.4 22.4l-819.2 0c-12.8 0-22.4-9.6-22.4-22.4 0-12.8 9.6-22.4 22.4-22.4L921.6 352z"  horiz-adv-x="1024" />

    
    <glyph glyph-name="shuaxin" unicode="&#58960;" d="M960 265.6c-12.8 3.2-25.6-3.2-32-12.8-76.8-204.8-320-307.2-544-227.2-224 80-342.4 307.2-265.6 512 76.8 204.8 320 307.2 544 227.2 92.8-32 172.8-92.8 224-172.8l-92.8 0c-12.8 0-25.6-9.6-25.6-22.4 0-12.8 9.6-22.4 25.6-22.4l153.6 0c12.8 0 25.6 9.6 25.6 22.4l0 140.8c0 12.8-9.6 22.4-25.6 22.4-12.8 0-25.6-9.6-25.6-22.4l0-89.6c-57.6 86.4-140.8 150.4-246.4 188.8-249.6 86.4-518.4-28.8-608-256-86.4-230.4 44.8-486.4 294.4-572.8 249.6-86.4 518.4 28.8 608 256C979.2 246.4 972.8 259.2 960 265.6z"  horiz-adv-x="1024" />

    
    <glyph glyph-name="wodedingdan" unicode="&#58965;" d="M883.2 835.2l-89.6 0c-12.8 0-25.6-9.6-25.6-25.6s9.6-25.6 25.6-25.6l89.6 0c25.6 0 48-22.4 48-48l0-713.6c0-25.6-22.4-48-48-48l-736 0c-25.6 0-48 22.4-48 48l0 713.6c0 25.6 22.4 48 48 48l99.2 0c12.8 0 25.6 9.6 25.6 25.6s-9.6 25.6-25.6 25.6l-99.2 0c-54.4 0-96-41.6-96-96l0-713.6c0-54.4 41.6-96 96-96l736 0c54.4 0 96 41.6 96 96l0 713.6C979.2 793.6 934.4 835.2 883.2 835.2zM393.6 787.2l240 0c12.8 0 25.6 9.6 25.6 25.6s-9.6 25.6-25.6 25.6l-240 0c-12.8 0-25.6-9.6-25.6-25.6S380.8 787.2 393.6 787.2zM294.4 550.4l464 0c12.8 0 25.6 9.6 25.6 25.6s-9.6 25.6-25.6 25.6l-464 0c-12.8 0-25.6-9.6-25.6-25.6S278.4 550.4 294.4 550.4zM294.4 355.2l464 0c12.8 0 25.6 9.6 25.6 25.6s-9.6 25.6-25.6 25.6l-464 0c-12.8 0-25.6-9.6-25.6-25.6S278.4 355.2 294.4 355.2zM294.4 160l464 0c12.8 0 25.6 9.6 25.6 25.6s-9.6 25.6-25.6 25.6l-464 0c-12.8 0-25.6-9.6-25.6-25.6S278.4 160 294.4 160z"  horiz-adv-x="1024" />

    
    <glyph glyph-name="wodehongbao" unicode="&#58967;" d="M865.745455 793.6C865.745455 793.6 865.745455 793.6 865.745455 793.6 865.745455 796.70303 865.745455 796.70303 865.745455 793.6c-18.618182 24.824242-46.545455 40.339394-77.575758 40.339394l-574.060606 0c-55.854545 0-99.29697-43.442424-99.29697-99.29697l0-698.181818c0-55.854545 43.442424-99.29697 99.29697-99.29697l574.060606 0c55.854545 0 99.29697 43.442424 99.29697 99.29697l0 698.181818C887.466667 756.363636 881.260606 778.084848 865.745455 793.6zM788.169697 784.290909c3.10303 0 9.309091 0 12.412121-3.10303l-291.684848-186.181818-313.406061 186.181818c6.206061 3.10303 12.412121 3.10303 18.618182 3.10303L788.169697 784.290909zM837.818182 33.357576c0-27.927273-21.721212-49.648485-49.648485-49.648485l-574.060606 0c-27.927273 0-49.648485 21.721212-49.648485 49.648485l0 698.181818c0 3.10303 0 3.10303 0 6.206061l332.024242-195.490909c9.309091-6.206061 18.618182-3.10303 24.824242 0l316.509091 201.69697c0-3.10303 3.10303-9.309091 3.10303-12.412121L840.921212 33.357576zM639.224242 334.351515c12.412121 0 24.824242 12.412121 24.824242 24.824242 0 12.412121-12.412121 24.824242-24.824242 24.824242l-83.781818 0 71.369697 71.369697c9.309091 9.309091 9.309091 24.824242 0 34.133333-9.309091 9.309091-24.824242 9.309091-34.133333 0l-80.678788-80.678788c0 0-3.10303 0-3.10303 0 0 0 0 0 0 0l-77.575758 77.575758c-9.309091 9.309091-24.824242 9.309091-34.133333 0-9.309091-9.309091-9.309091-24.824242 0-34.133333l68.266667-68.266667-74.472727 0c-12.412121 0-24.824242-12.412121-24.824242-24.824242 0-12.412121 12.412121-24.824242 24.824242-24.824242l93.090909 0 0-74.472727-93.090909 0c-12.412121 0-24.824242-12.412121-24.824242-24.824242 0-12.412121 12.412121-24.824242 24.824242-24.824242l93.090909 0 0-89.987879c0-12.412121 12.412121-24.824242 24.824242-24.824242 12.412121 0 24.824242 12.412121 24.824242 24.824242l0 89.987879 108.606061 0c12.412121 0 24.824242 12.412121 24.824242 24.824242 0 12.412121-12.412121 24.824242-24.824242 24.824242l-108.606061 0 0 74.472727L639.224242 334.351515z"  horiz-adv-x="1024" />

    
    <glyph glyph-name="xiangshangjiantou" unicode="&#58973;" d="M966.4 227.2l-435.2 432c-9.6 9.6-25.6 9.6-35.2 0l-441.6-432c-9.6-9.6-9.6-25.6 0-35.2 9.6-9.6 25.6-9.6 35.2 0l425.6 416 416-416c9.6-9.6 25.6-9.6 35.2 0S976 217.6 966.4 227.2z"  horiz-adv-x="1024" />

    
    <glyph glyph-name="xiangxiajiantou" unicode="&#58974;" d="M966.4 572.8c-9.6 9.6-25.6 9.6-35.2 0l-416-416-425.6 416c-9.6 9.6-25.6 9.6-35.2 0-9.6-9.6-9.6-25.6 0-35.2l441.6-432c9.6-9.6 25.6-9.6 35.2 0l435.2 432C976 550.4 976 563.2 966.4 572.8z"  horiz-adv-x="1024" />

    
    <glyph glyph-name="xiangyoujiantou" unicode="&#58975;" d="M761.6 406.4l-432 435.2c-9.6 9.6-25.6 9.6-35.2 0-9.6-9.6-9.6-25.6 0-35.2l416-416-416-425.6c-9.6-9.6-9.6-25.6 0-35.2s25.6-9.6 35.2 0l432 441.6C771.2 380.8 771.2 396.8 761.6 406.4z"  horiz-adv-x="1024" />

    
    <glyph glyph-name="xiangzuojiantou" unicode="&#58976;" d="M729.6-35.2l-416 425.6 416 416c9.6 9.6 9.6 25.6 0 35.2-9.6 9.6-25.6 9.6-35.2 0l-432-435.2c-9.6-9.6-9.6-25.6 0-35.2l432-441.6c9.6-9.6 25.6-9.6 35.2 0C739.2-60.8 739.2-44.8 729.6-35.2z"  horiz-adv-x="1024" />

    
    <glyph glyph-name="huo" unicode="&#58988;" d="M336-76.8c-60.8 128-28.8 201.6 19.2 268.8 51.2 76.8 64 150.4 64 150.4s41.6-51.2 25.6-134.4c70.4 80 83.2 208 73.6 256 160-112 230.4-358.4 137.6-537.6 492.8 281.6 121.6 700.8 57.6 745.6 22.4-48 25.6-128-19.2-166.4-73.6 281.6-256 336-256 336 22.4-144-76.8-300.8-172.8-419.2-3.2 57.6-6.4 96-38.4 153.6-6.4-105.6-86.4-188.8-108.8-294.4C89.6 137.6 140.8 35.2 336-76.8L336-76.8z"  horiz-adv-x="1024" />

    
    <glyph glyph-name="xinzeng" unicode="&#58916;" d="M739.456 414.016 551.104 414.016 551.104 620.928c0 13.504-10.496 22.912-33.792 24.256S483.52 634.496 483.52 620.928l0-206.912L284.608 414.016c0 0-37.568 3.456-37.568-27.072 0-41.088 16.064-41.024 29.568-41.024l206.912 0-0.064-216.96c0-16.96-3.52-39.424 31.616-39.424 36.992 0 35.264 34.048 35.264 41.984l0.832 214.464 188.352 0c8.64 0 41.984-2.432 42.432 35.584S739.456 414.016 739.456 414.016zM518.592 853.952c-265.152 0-480-214.848-480-480 0-265.088 214.848-480 480-480s480 214.848 480 480S783.68 853.952 518.592 853.952zM518.592-41.984c-229.76 0-416 186.304-416 416 0 229.76 186.24 416 416 416s416-186.24 416-416C934.528 144.256 748.352-41.984 518.592-41.984z"  horiz-adv-x="1024" />

    
    <glyph glyph-name="3" unicode="&#58882;" d="M512 145.490683c-19.080745 0-31.801242 12.720497-31.801242 31.801242L480.198758 463.503106c0 19.080745 12.720497 31.801242 31.801242 31.801242s31.801242-12.720497 31.801242-31.801242l0-286.21118C537.440994 158.21118 524.720497 145.490683 512 145.490683zM651.925466 361.73913 365.714286 361.73913c-19.080745 0-31.801242 12.720497-31.801242 31.801242 0 19.080745 12.720497 31.801242 31.801242 31.801242l286.21118 0c19.080745 0 31.801242-12.720497 31.801242-31.801242C683.726708 374.459627 671.006211 361.73913 651.925466 361.73913zM651.925466 247.254658 365.714286 247.254658c-19.080745 0-31.801242 12.720497-31.801242 31.801242 0 19.080745 12.720497 31.801242 31.801242 31.801242l286.21118 0c19.080745 0 31.801242-12.720497 31.801242-31.801242C683.726708 259.975155 671.006211 247.254658 651.925466 247.254658zM512 431.701863c-6.360248 0-19.080745 0-25.440994 6.360248L352.993789 571.627329c-12.720497 12.720497-12.720497 31.801242 0 44.521739 12.720497 12.720497 31.801242 12.720497 44.521739 0l133.565217-133.565217c12.720497-12.720497 12.720497-31.801242 0-44.521739C524.720497 431.701863 518.360248 431.701863 512 431.701863zM512 431.701863c-6.360248 0-19.080745 0-25.440994 6.360248-12.720497 12.720497-12.720497 31.801242 0 44.521739l133.565217 133.565217c12.720497 12.720497 31.801242 12.720497 44.521739 0 12.720497-12.720497 12.720497-31.801242 0-44.521739L531.080745 438.062112C524.720497 431.701863 518.360248 431.701863 512 431.701863zM512-121.639752c-279.850932 0-508.819876 228.968944-508.819876 508.819876s228.968944 508.819876 508.819876 508.819876 508.819876-228.968944 508.819876-508.819876c0-25.440994 0-50.881988-6.360248-82.68323 0-19.080745-19.080745-31.801242-38.161491-25.440994-19.080745 0-31.801242 19.080745-25.440994 38.161491 6.360248 25.440994 6.360248 44.521739 6.360248 69.962733 0 248.049689-197.167702 445.217391-445.217391 445.217391S66.782609 628.869565 66.782609 380.819876s197.167702-445.217391 445.217391-445.217391c25.440994 0 57.242236 0 82.68323 6.360248 19.080745 6.360248 31.801242-6.360248 38.161491-25.440994 6.360248-19.080745-6.360248-31.801242-25.440994-38.161491C575.602484-121.639752 543.801242-121.639752 512-121.639752zM989.018634 31.006211l-318.012422 0c-19.080745 0-31.801242 12.720497-31.801242 31.801242s12.720497 31.801242 31.801242 31.801242l318.012422 0c19.080745 0 31.801242-12.720497 31.801242-31.801242S1001.73913 31.006211 989.018634 31.006211zM830.012422-128c-19.080745 0-31.801242 12.720497-31.801242 31.801242l0 318.012422c0 19.080745 12.720497 31.801242 31.801242 31.801242s31.801242-12.720497 31.801242-31.801242l0-318.012422C861.813665-108.919255 842.732919-128 830.012422-128z"  horiz-adv-x="1024" />

    
    <glyph glyph-name="qiyeshenfenrz" unicode="&#58971;" d="M959.363 297.465v598.535h-958.872v-894.857l547.504-0.093c44.161-75.658 126.199-126.501 220.121-126.501 140.671 0 254.707 114.037 254.707 254.709 0 64.472-23.966 123.339-63.461 168.208zM913.187 853.62v-166.971l-870.316-0v166.971h870.316zM42.871 46.423v596.255h870.316v-304.056c-41.168 28.58-91.158 45.345-145.071 45.345-140.671 0-254.708-114.037-254.708-254.707 0-29 4.857-56.864 13.785-82.834l-484.322-0.003zM768.116-81.798c-116.653 0-211.556 94.904-211.556 211.556 0 116.652 94.904 211.556 211.556 211.556 70.617 0 133.255-34.786 171.702-88.115l-171.851-175.692-99.175 96.813-32.598-33.271 132.446-129.412 194.736 199.517c10.49-25.069 16.296-52.567 16.296-81.397-0.001-116.652-94.904-211.556-211.556-211.556zM132.365 515.048h43.972v-191.977h-43.972v191.977zM271.884 515.048h43.972v-191.977h-43.972v191.977zM407.847 515.048h43.972v-191.977h-43.972v191.977z"  horiz-adv-x="1024" />

    
    <glyph glyph-name="shendurz" unicode="&#58977;" d="M510.885 193.936l-224.863 222.498-32.637-33.31 258.174-255.135 337.684 342.695-34.114 31.833zM511.998 896c-2.773 0-277.876-0.745-511.29-62.777v-448.495c0.426-5.814 7.913-93.899 71.84-198.801 38.779-63.653 90.395-121.94 153.403-170.785 78.299-60.705 174.524-108.869 286.047-143.142 111.199 34.207 207.2 82.15 285.359 142.6 62.969 48.692 114.591 106.829 153.451 170.265 64.349 105.109 72.045 194.15 72.483 199.869v0.552l-0 447.937c-233.412 62.032-508.51 62.777-511.293 62.777zM511.998 853.386c3.448-0.005 249.198-0.978 468.678-53.37v-157.284h-937.353v157.284c219.474 52.39 465.228 53.365 468.675 53.37zM980.676 386.582c-1.119-11.582-10.401-88.302-66.206-179.455-36.161-59.031-84.332-113.31-143.184-158.818-71.099-54.989-158.285-99.246-259.295-131.643-101.227 32.44-188.615 76.865-259.931 132.156-58.921 45.677-107.073 100.112-143.124 159.282-55.64 91.305-64.563 167.126-65.614 178.4l-0 211.838h937.353l0.001-211.761z"  horiz-adv-x="1024" />

    
    <glyph glyph-name="liwu" unicode="&#59013;" d="M924.649248 73.490014 924.649248 379.818771c21.098527 12.180414 35.259038 34.95614 35.259038 61.081147L959.908286 518.980227c0 38.885636-31.564903 70.502727-70.50989 70.502727l-92.732008 0c2.031263 1.215688 4.050246 2.440585 6.051833 3.677762 42.710754 26.396183 71.222111 52.741201 79.844489 81.858356 8.915044 30.106692-5.238304 57.455573-38.946011 76.966952-38.893822 22.51376-86.874603 25.088398-141.296073 12.032034-38.808888-9.31004-79.630618-26.253944-121.081683-48.621371-22.441105-12.109806-43.670615-25.061792-63.065338-38.024012-4.710278-3.14769-9.074679-6.139837-13.083993-8.951883-6.860245 6.130627-13.867846 12.18553-21.047362 18.104333-60.102866 49.556673-120.3009 82.089623-178.51065 89.178065-47.313585 5.762237-91.119277-5.932106-128.96421-37.111223l-2.709715-2.62478c-1.222851-1.39272-2.399653-2.796696-3.529383-4.211928-38.202067-47.88766-20.659529-97.891518 27.161616-142.272307l-60.288085 0c-39.051411 0-70.50989-31.546483-70.50989-70.502727l0-78.08031c0-26.058492 14.186094-48.836265 35.259038-61.038168l0-306.371736c0-51.970652 42.047652-93.820805 94.055143-93.820805l634.591059 0C882.690624-20.329768 924.649248 21.60839 924.649248 73.490014zM603.601254 674.133913c38.149878 20.586874 75.376735 36.037774 109.707634 44.274366 43.72792 10.489912 79.850629 8.55177 106.71651-6.999414 16.350386-9.464559 19.618826-15.780405 17.451464-23.098068-4.270257-14.421454-26.194592-34.679847-59.513442-55.271838-14.854313-9.18008-30.887474-17.828041-46.931892-25.63996-9.611915-4.679579-17.024745-8.011464-21.10876-9.732665-4.241604-1.787716-7.677866-4.674463-10.128685-8.185426L578.456574 589.480908c-0.849344 3.066849-2.323928 6.012947-4.477988 8.629541-1.252527 1.521656-3.5345 4.210905-6.777357 7.900947-5.322216 6.055926-11.461029 12.780071-18.346857 20.006659-2.964518 3.110851-5.992481 6.218632-9.052167 9.324366 1.469468 0.998747 2.978844 2.015913 4.5312 3.053546C562.564629 650.581498 582.550823 662.775214 603.601254 674.133913zM273.063119 591.664643c-2.225691 1.238201-6.499018 3.817955-12.116969 7.561209-9.450233 6.296403-18.900465 13.420661-27.631314 21.152762-35.000142 30.993898-45.433772 58.057277-26.204825 82.161255 0.300852 0.3776 0.636496 0.75827 0.953721 1.136893 27.187199 21.762653 57.552787 29.628808 91.77317 25.461905 47.482431-5.782703 100.449783-34.407648 154.260339-78.775134 21.828145-17.997909 42.267663-37.33635 60.690244-56.668651 1.362021-1.428535 2.683109-2.830465 3.979638-4.212952L276.309046 589.481931C275.30416 590.284203 274.223548 591.017914 273.063119 591.664643zM113.702622 518.980227c0 13.100366 10.464329 23.593348 23.499204 23.593348l752.196571 0c12.941753 0 23.499204-10.574846 23.499204-23.593348l0-78.08031c0-6.303566-2.427282-11.999288-6.393617-16.217357-1.722224 0.401136-3.514033 0.620124-5.359055 0.620124L125.455293 425.302685c-1.825578 0-3.599991-0.214894-5.306866-0.607844-3.988848 4.229325-6.445806 9.931187-6.445806 16.205077L113.702622 518.980227zM196.004069 26.578588c-26.069749 0-47.043433 20.874423-47.043433 46.911426L148.960637 370.397191l728.676901 0 0-296.907177c0-25.993001-20.928658-46.911426-47.043433-46.911426L196.004069 26.578588z"  horiz-adv-x="1024" />

    
    <glyph glyph-name="qianbao" unicode="&#58987;" d="M926.001035 610.454592 230.820016 783.825175c-11.351536 2.858094-25.650193 0.76134-34.096563-5.850242-8.858762-6.919597-17.10047-17.777899-17.10047-30.558993l0-133.456524-48.090275 0c-34.83539 0-67.543326-31.756261-67.543326-66.591651l0-505.398652c0-34.83539 32.707936-59.389622 67.543326-59.389622l768.626775 0c34.834366 0 59.222823 24.554232 59.222823 59.389622L959.382307 518.540206l0 28.826536 0 16.507976C959.382307 584.768583 947.012581 605.230614 926.001035 610.454592zM230.552933 741.665982l513.582031-127.706567L230.513024 613.959416 230.552933 741.665982zM917.426753 46.581154c0-10.105149-8.454556-22.046109-22.410406-22.046109L134.811382 24.535045c-13.95585 0-28.866445 11.94096-28.866445 22.046109L105.944937 557.501566c0 10.105149 14.910595 14.502295 28.866445 14.502295l760.204965 0c13.95585 0 22.410406-4.397147 22.410406-14.502295L917.426753 46.581154zM226.295979 352.57222c-31.93227 0-57.909921-25.983791-57.909921-57.909921s25.978674-57.909921 57.909921-57.909921 57.909921 25.983791 57.909921 57.909921S258.227226 352.57222 226.295979 352.57222zM226.295979 268.339794c-14.513552 0-26.322505 11.803837-26.322505 26.322505 0 14.518668 11.808954 26.322505 26.322505 26.322505 14.513552 0 26.322505-11.803837 26.322505-26.322505C252.618485 280.143631 240.809531 268.339794 226.295979 268.339794z"  horiz-adv-x="1024" />

    
    <glyph glyph-name="guanzhu" unicode="&#58898;" d="M823.778 261.94c0 0-84.184 11.956-95.758 13.626-0.816 0.127-1.351 0.204-1.377 0.204-6.195 1.389-11.307 5.29-14.353 10.517-0.102 0.241-2.651 5.238-6.374 12.606-11.765 23.353-35.807 71.079-35.807 71.079-2.97 6.527-9.624 11.090-17.349 11.090-7.801 0-14.469-4.563-17.387-11.090 0 0-3.352-6.59-8.056-15.934-12.020-23.761-33.282-65.814-33.36-65.981-2.868-6.182-8.553-10.822-15.513-12.262-0.268-0.051-97.338-13.78-97.338-13.78-8.35-1.976-14.544-9.268-14.544-18.038 0-5.009 2.026-9.547 5.354-12.888 0 0 68.771-65.571 69.014-65.802 3.836-3.901 6.22-9.165 6.22-14.989 0-1.275-0.191-2.537-0.395-3.8-0.051-0.178-7.47-42.488-12.212-69.319-2.167-12.417-3.774-21.517-3.774-21.517s-0.395-2.55-0.395-3.8c0-10.274 8.503-18.585 19.006-18.585 2.549 0 4.946 0.51 7.164 1.403 0 0 64.106 33.039 82.717 42.499 2.995 1.529 4.908 2.498 5.111 2.575 2.549 1.007 5.328 1.593 8.248 1.593 2.868 0 5.545-0.574 8.043-1.517 0.229-0.076 2.193-1.070 5.252-2.65 18.764-9.535 82.183-42.385 82.679-42.563 2.232-0.906 4.691-1.441 7.241-1.441 10.504 0 19.044 8.311 19.044 18.585 0 0.332-1.86 11.219-4.334 25.419-4.921 28.235-12.212 69.944-12.289 70.632-0.076 0.778-0.229 1.543-0.229 2.332 0 5.724 2.32 10.913 6.055 14.787 0.14 0.127 7.749 7.394 17.808 16.966 20.421 19.452 51.103 48.656 51.103 48.656l0.241 0.23c3.352 3.366 5.482 7.929 5.482 13.015 0.003 8.898-6.37 16.317-14.936 18.14v0zM449.327 209.471c-9.293 9.255-14.392 21.53-14.392 34.52 0 22.918 15.934 42.665 38.752 48.057 0.943 0.229 1.913 0.407 2.881 0.548 24.806 3.506 57.757 8.183 78.216 11.076l34.087 67.166c3.913 2.052 7.457 4.678 11.217 6.96 30.058 18.369 55.246 43.774 72.838 74.419 17.54 30.543 27.878 65.725 27.878 103.418 0 114.981-93.374 208.52-208.112 208.52-114.764 0-208.124-93.539-208.124-208.52 0-37.693 10.351-72.876 27.89-103.418 19.809-34.519 48.924-62.997 84.234-81.481-1.988-0.407-4.041-0.51-5.991-1.020-13.334-3.366-25.852-8.655-37.847-15.169-11.893-6.462-22.652-14.417-32.951-22.97-15.78-10.771-30.899-22.664-44.692-36.495-52.723-52.787-83.775-109.882-89.155-183.586-0.128-1.835-8.578-26.030 26.107-26.107h287.169c7.725 43.876 14.074 54.023 15.437 61.673-14.697 14.008-64.921 61.9-64.921 61.9-0.178 0.178-0.357 0.357-0.535 0.51l0.013-0zM449.327 209.471z"  horiz-adv-x="1024" />

    
    <glyph glyph-name="zhifuchenggong" unicode="&#58915;" d="M512-21.381727c-223.886093 0-405.381727 181.495634-405.381727 405.381727S288.113907 789.381727 512 789.381727s405.381727-181.495634 405.381727-405.381727S735.886093-21.381727 512-21.381727zM768.304434 555.124426 452.991048 239.812063 263.803221 428.99989l-22.932292-22.931269L452.991048 193.94748l338.244654 338.244654L768.304434 555.124426z"  horiz-adv-x="1024" />

    
    <glyph glyph-name="zhuanzhang" unicode="&#58978;" d="M745.630052 666.281183C732.696487 679.392835 711.5264 679.5264 698.414748 666.548313L512.002226 482.16153 325.567443 666.548313C312.478052 679.5264 291.307965 679.392835 278.352139 666.281183 265.374052 653.16953 265.507617 632.021704 278.61927 619.065878L452.009183 447.568139 329.129183 447.568139C310.697183 447.568139 295.737878 432.608835 295.737878 414.176835 295.737878 395.744835 310.697183 380.78553 329.129183 380.78553L478.610922 380.78553 478.610922 282.036313 329.129183 282.036313C310.697183 282.036313 295.737878 267.077009 295.737878 248.645009 295.737878 230.213009 310.697183 215.253704 329.129183 215.253704L478.610922 215.253704 478.610922 62.744487C478.610922 44.312487 493.570226 29.353183 512.002226 29.353183 530.434226 29.353183 545.39353 44.312487 545.39353 62.744487L545.39353 215.253704 694.87527 215.253704C713.30727 215.253704 728.266574 230.213009 728.266574 248.645009 728.266574 267.077009 713.30727 282.036313 694.87527 282.036313L545.39353 282.036313 545.39353 380.78553 694.87527 380.78553C713.30727 380.78553 728.266574 395.744835 728.266574 414.176835 728.266574 432.608835 713.30727 447.568139 694.87527 447.568139L571.973009 447.568139 745.362922 619.065878C758.474574 632.043965 758.608139 653.16953 745.630052 666.281183ZM33.391304 501.715478 187.191652 501.715478C205.623652 501.715478 220.582957 516.674783 220.582957 535.106783 220.582957 553.538783 205.623652 568.498087 187.191652 568.498087L107.074783 568.498087C178.688 726.105043 335.872 829.217391 512 829.217391 757.426087 829.217391 957.106087 629.49287 957.106087 384 957.106087 365.568 972.065391 350.608696 990.497391 350.608696 1008.929391 350.608696 1023.888696 365.568 1023.888696 384 1023.888696 666.334609 794.267826 896 512 896 324.808348 896 156.338087 794.646261 66.782609 636.282435L66.782609 791.79687C66.782609 810.22887 51.823304 825.188174 33.391304 825.188174 14.959304 825.188174 0 810.22887 0 791.79687L0 535.106783C0 516.674783 14.959304 501.715478 33.391304 501.715478ZM990.608696 280.867617 836.786087 280.867617C818.354087 280.867617 803.394783 265.908313 803.394783 247.476313 803.394783 229.044313 818.354087 214.085009 836.786087 214.085009L923.225043 214.085009C855.173565 50.044661 692.246261-61.215165 512-61.215165 266.573913-61.215165 66.893913 138.487096 66.893913 384.002226 66.893913 402.434226 51.934609 417.39353 33.502609 417.39353 15.070609 417.39353 0.111304 402.434226 0.111304 384.002226 0.111304 101.667617 229.732174-127.997774 512-127.997774 697.811478-127.997774 867.617391-25.152557 957.217391 132.031443L957.217391-9.213774C957.217391-27.645774 972.176696-42.605078 990.608696-42.605078 1009.040696-42.605078 1024-27.645774 1024-9.213774L1024 247.476313C1024 265.908313 1009.040696 280.867617 990.608696 280.867617Z"  horiz-adv-x="1024" />

    
    <glyph glyph-name="zan11" unicode="&#58932;" d="M868.354104 328.881658c56.047504 0 84.071767 168.143535 0 168.143535L700.206476 497.025193c168.147628 280.242635 46.413076 336.290139 0 336.290139 0-142.373615-209.370495-301.023938-420.36293-364.314403L279.843546 20.619876l-56.047504 0L223.796042 469.006046l56.047504 0 0 28.02938L167.749562 497.035426c-30.828123 0-56.047504-37.83777-56.047504-84.076884l0-336.291163c0-46.239114 25.219381-84.070744 56.047504-84.070744l112.095008 0 0 28.018124c238.850923-24.823362 155.578358-84.070744 392.338666-84.070744 56.047504 0 112.095008 28.02324 112.095008 84.070744 56.05262 0 84.076884 140.119271 56.05262 140.119271C896.378367 160.73403 932.281065 328.881658 868.354104 328.881658L868.354104 328.881658zM868.354104 328.881658"  horiz-adv-x="1024" />

    
    <glyph glyph-name="zan" unicode="&#58931;" d="M968.028 322.001c24 27.33 36 64.33 36 111.007 0 13.332-1.5 25.832-4.51 37.502-3.01 11.667-7.18 22.165-12.51 31.485-3.33 5.335-7.5 10.337-12.51 15.01-5.015 4.67-10.18 8.5-15.49 11.487-5.31 2.985-11.145 5.322-17.5 7.007-6.36 1.685-12.86 2.518-19.49 2.495l-134.01 0c72.66 132.667 90.66 231.662 54.01 296.982-11.325 20.672-26.825 36.01-46.49 46.015C775.858 890.998 756.688 896 738.023 896c-3.325 0-6.495-0.5-9.505-1.505-3.01-1.002-5.67-2.505-8-4.51-2.325-2.005-4.16-4.342-5.5-7.007-1.35-2.667-2.35-5.665-3.01-8.992-1.345-13.332-4.68-27.337-10.015-42.015-5.335-14.677-12.175-29.515-20.515-44.51-8.34-14.997-18-29.995-28.99-44.99-10.985-14.997-23.315-29.995-36.99-44.992-13.67-14.997-28.51-29.832-44.51-44.51-79.997-71.997-170.33-124.997-270.999-159.002-5.995 12.67-15.327 23.167-27.997 31.487-12.672 8.317-26.335 12.49-40.992 12.51L76.99 537.964c-21.332 0-39.497-7.497-54.495-22.495S0 482.306 0 460.974l0-460.976c0-21.335 7.497-39.495 22.495-54.495 14.997-14.995 33.162-22.49 54.495-22.49l154.01 0c10.005 0 19.84 2.16 29.505 6.49 9.662 4.33 17.992 10.17 24.99 17.505 6.997 7.34 12.5 15.67 16.512 24.995 31.337-4.015 59.005-9.175 83.005-15.49 23.997-6.315 41.16-11.82 51.485-16.51 10.325-4.695 23.83-11.36 40.512-20 20.01-11.33 36.51-19.5 49.5-24.51 12.99-5.015 35.33-10.18 67.01-15.49 31.68-5.31 69.51-7.98 113.5-8 18.665 0 36.33 2.335 52.99 7.01 16.66 4.67 31.655 11.335 44.99 20 26 17.34 42 40.34 48 68.99 20.67 8.66 38 27.325 51.995 55.995 14.675 29.995 22.015 59.995 22.015 90.015l0 8c0 2-0.33 4.01-0.99 6.015 4.67 3.325 9 7.155 12.99 11.485 3.99 4.33 7.82 9.165 11.49 14.5 3.67 5.33 6.835 11.335 9.5 18.01 15.34 29.335 23.01 60.33 23.01 92.99 0 21.995-4 40-12 54.015-1.345 1.345-2.02 2.345-2.02 3.01l-0.99 0L968.028 322.001zM230.072-25.988 77.085-25.988c-3.327 0-6.665 0.835-10.015 2.5-3.35 1.66-6.187 3.5-8.512 5.5-2.325 2.01-4.16 4.675-5.502 8-1.345 3.33-2.017 6.67-2.017 10.02L51.039 461.006c0 6.677 2.497 12.512 7.487 17.505 4.992 4.99 11.157 7.487 18.497 7.487l152.987 0c7.337 0 13.502-2.497 18.495-7.487 4.99-4.992 7.487-10.827 7.487-17.505l0-460.974c0-13.335-6.337-21.665-19.007-24.99-2.667 0-5.002-0.335-7.007-0.995L230.072-25.988zM939.038 370.001c-7.335-13.995-13.67-20.99-19.005-20.99-7.335 0-13.505-2.5-18.495-7.49s-7.49-10.995-7.49-18.015c0-7.015 2.5-13.025 7.49-18.015s11.16-7.49 18.495-7.49c2.665 0 4.675-1.33 6.015-4 3.33-6.675 4.99-16.34 4.99-28.99 0-24.66-5.33-48.33-16-71.005-9.34-18.665-17.67-27.995-24.99-27.995-4.67 0-9-1.005-12.99-3.01-3.99-2.01-7.16-5.005-9.5-8.99-2.35-3.99-3.51-8.32-3.49-12.995 0-3.325 0.5-6.325 1.5-8.99 1.005-2.665 2.34-5.005 4-7.01 1.67-2.005 3.83-4.01 6.5-6.015 0.66-9.34-1.175-23.01-5.505-40.99-4.33-17.985-11.165-33.65-20.515-47.01-8-11.325-14.99-16.99-20.99-16.99-4.67 0-9-1-12.99-3.01-3.99-2-7.16-5-9.5-8.99-2.35-3.99-3.51-8.32-3.49-12.99 0-21.33-9.505-37.66-28.51-48.99-19.01-11.33-41.505-16.99-67.49-16.99-40 0-74 2.165-102.01 6.495-28.01 4.33-47.84 8.83-59.49 13.505-11.645 4.67-26.48 12.01-44.507 22.01-18.005 9.35-32.842 16.685-44.51 22.02-11.67 5.33-30.837 11.5-57.502 18.495-26.667 6.995-57.332 12.83-91.997 17.505L307.062 442.064c111.335 36.67 210.667 94.332 298.007 172.987 83.325 75.325 134.32 150.66 152.985 226.007 18.005-5.332 31.34-15.667 40-31.007 4.675-9.342 7.84-20.51 9.505-33.502 1.66-12.992 1.16-30.655-1.505-52.99s-11.165-50.505-25.505-84.51c-14.335-34.002-34.16-72.007-59.485-114.012-2.005-4.01-3.005-8.34-3.005-12.99 0-4.652 1-8.982 3.005-12.992 4.675-8.662 12.01-12.992 22.015-12.992l187 0 2.02-2.015c1.34 0 2.505-0.33 3.49-0.992 0.98-0.66 1.98-1.492 3.005-2.495s1.855-2.005 2.495-3.007c0.64-1.003 1.64-2.165 3.01-3.49 2.665-4.67 4.83-10.505 6.495-17.502 1.665-6.997 2.495-14.825 2.495-23.487 0-23.337-4.67-44.34-14.015-63.005L939.038 370.001z"  horiz-adv-x="1025" />

    
    <glyph glyph-name="liulan" unicode="&#58947;" d="M510.557 691.646c-302.839 0-458.323-306.151-458.323-306.151s117.33-306.19 458.323-306.19c308.802 0 458.301 304.995 458.301 304.995s-150.691 307.345-458.301 307.345v0 0zM511.246 194.134c-110.73 0-190.773 83.726-190.773 191.364 0 107.648 80.049 191.352 190.773 191.352 110.724 0 190.764-83.697 190.764-191.352 0.001-107.639-80.039-191.364-190.764-191.364v0 0zM511.246 500.324c-63.286-0.145-114.461-53.321-114.461-114.827 0-61.473 51.176-114.821 114.461-114.821 63.282 0 114.454 53.352 114.454 114.821 0.004 61.527-51.17 114.946-114.454 114.827v0 0z"  horiz-adv-x="1024" />

    
    <glyph glyph-name="ai43" unicode="&#59041;" d="M104.051309 31.009504l814.186414 0-407.067112 703.113689L104.051309 31.009504zM548.143687 142.034133l-73.998341 0 0 73.998341 73.998341 0L548.143687 142.034133zM548.143687 290.026722l-73.998341 0 0 148.049894 73.998341 0L548.143687 290.026722z"  horiz-adv-x="1024" />

    
    <glyph glyph-name="buoumaotubiao49" unicode="&#58924;" d="M511.976727 849.454545C768.628364 849.454545 977.454545 640.651636 977.454545 384c0-256.651636-208.826182-465.454545-465.477818-465.454545C255.348364-81.454545 46.545455 127.348364 46.545455 384 46.545455 640.651636 255.348364 849.454545 511.976727 849.454545M511.976727 896C229.096727 896 0 666.763636 0 384c0-282.693818 229.096727-512 511.976727-512C794.740364-128 1024 101.306182 1024 384 1024 666.763636 794.740364 896 511.976727 896L511.976727 896zM820.247273 364.706909c0-157.044364-138.030545-284.369455-308.270545-284.369455-170.263273 0-308.247273 127.325091-308.247273 284.369455L820.247273 364.706909zM348.741818 557.521455m-61.905455 0a2.66 2.66 0 1 0 123.810909 0 2.66 2.66 0 1 0-123.810909 0ZM690.920727 557.521455m-61.928727 0a2.661 2.661 0 1 0 123.857455 0 2.661 2.661 0 1 0-123.857455 0Z"  horiz-adv-x="1024" />

    
    <glyph glyph-name="tixian" unicode="&#58902;" d="M1005.239893 574.3168c-12.09344 12.83328-28.16 16.653227-45.226667 16.653227L106.67648 590.970027c-17.099947 0-33.21344 9.496747-45.243307 22.293333-12.123307 12.86656-18.740053 32.35328-18.740053 50.4832 0 18.153387 6.616747 33.58336 18.70336 46.41664 12.06656 12.83328 28.180053 16.653227 45.28 16.653227l170.673493 0c11.77344 0 21.326507 10.143147 21.326507 22.629973 0 12.493227-9.553493 22.666667-21.326507 22.666667L106.67648 772.113067c-28.489813 0-55.286613-9.353387-75.466667-30.760107C11.086507 719.990187 0.003413 693.949867 0.003413 663.74656c0-1.640107 0.366507-3.209813 0.43648-4.84992L0.003413 658.89664l0-650.103467c0-30.280107 11.08352-61.92 31.206827-83.286613 20.180053-21.399893 46.976853-36.38656 75.466667-36.38656l853.336747 0c17.066667 0 33.173333 10.30016 45.226667 23.13344S1024-54.640213 1024-36.466773L1024 529.53984C1024 547.69664 1017.360213 561.519787 1005.239893 574.3168zM981.34656-36.50688c0-6.033493-2.226773-14.94656-6.280107-19.213227-4.040107-4.299947-9.399893-9.85984-15.053227-9.85984L106.67648-65.579947c-17.099947 0-33.21344 10.260053-45.28 23.113387-12.086613 12.8-18.70336 33.099947-18.70336 51.26016L42.69312 571.720107c18.429867-15.556693 40.503467-26.039893 63.98336-26.039893l853.336747 0c5.653333 0 11.013547 0.886613 15.053227-3.380053 4.013227-4.266667 6.280107-6.726827 6.280107-12.759893L981.34656-36.50688zM849.040213 726.85312l4.266667 0c5.719893 0 11.06688 0.8832 15.093333-3.42016 4.02688-4.293547 6.253227-6.716587 6.253227-12.759893l0-33.79328c0-12.486827 9.546667-22.65984 21.360213-22.65984 11.77344 0 21.30688 10.136747 21.30688 22.65984l0 33.79328c0 18.1568-6.62656 31.98336-18.733227 44.779947-12.106667 12.829867-28.18688 16.660053-45.28 16.660053l-4.266667 0c-11.813547 0-21.333333-10.143147-21.333333-22.666667S837.226667 726.85312 849.040213 726.85312zM308.136533 622.78656l320.090027 208.439893c5.320107 2.7968 11.333547 3.10656 16.880213 0.956587 5.573547-2.186667 9.906773-6.62656 12.18688-12.423253l100.86656-185.64352 39.306667 17.579947-100.853333 185.673387c-6.81344 17.16992-20.200107 30.749867-36.693333 37.266773-16.50688 6.52672-35.013547 5.469867-50.74688-2.823253L289.143467 663.400107 308.136533 622.78656zM844.773547 97.419947 640 97.419947c-14.14656 0-25.6-11.666773-25.6-26.066773 0-14.36672 11.45344-26.053547 25.6-26.053547l204.773547 0c14.14656 0 25.613227 11.686827 25.613227 26.053547C870.386773 85.786453 858.920107 97.419947 844.773547 97.419947z"  horiz-adv-x="1024" />

    
    <glyph glyph-name="yiwen" unicode="&#58886;" d="M512-128C229.218462-128 0 101.257846 0 384 0 666.781538 229.218462 896 512 896 794.781538 896 1024 666.781538 1024 384 1024 101.257846 794.781538-128 512-128ZM512 817.270154C272.738462 817.270154 78.769231 623.300923 78.769231 384 78.769231 144.738462 272.738462-49.230769 512-49.230769 751.261538-49.230769 945.230769 144.738462 945.230769 384 945.230769 623.300923 751.261538 817.270154 512 817.270154ZM649.885538 438.272C639.763692 425.314462 628.854154 413.853538 617.196308 403.849846 605.538462 393.846154 594.628923 383.842462 584.507077 373.838769 574.385231 363.835077 565.956923 353.476923 559.300923 342.685538 552.644923 331.933538 549.297231 320 549.297231 306.924308 549.297231 295.896615 550.715077 285.892923 553.550769 276.913231 556.347077 267.933538 559.182769 260.371692 562.018462 254.227692L480.846769 254.227692C478.523077 260.647385 476.475077 268.957538 474.702769 279.236923 472.891077 289.476923 471.985231 299.598769 471.985231 309.602462 471.985231 325.238154 475.136 339.416615 481.437538 352.098462 487.699692 364.819692 495.537231 376.674462 504.871385 387.702154 514.244923 398.729846 524.366769 409.363692 535.276308 419.603692 546.146462 429.883077 556.307692 439.886769 565.641846 449.614769 575.015385 459.342769 582.813538 469.622154 589.115077 480.374154 595.377231 491.165538 598.528 502.941538 598.528 515.780923 598.528 527.320615 596.243692 537.363692 591.596308 545.949538 586.988308 554.535385 580.647385 561.742769 572.573538 567.492923 564.499692 573.282462 555.283692 577.575385 544.886154 580.371692 534.488615 583.207385 523.421538 584.625231 511.606154 584.625231 473.403077 584.625231 437.011692 567.571692 402.392615 533.464615L402.392615 622.316308C444.416 646.931692 488.014769 659.219692 533.149538 659.219692 553.905231 659.219692 573.558154 656.541538 591.990154 651.145846 610.461538 645.750154 626.609231 637.833846 640.472615 627.318154 654.296615 616.802462 665.206154 603.726769 673.161846 588.091077 681.117538 572.416 685.095385 554.220308 685.095385 533.464615 685.095385 513.732923 681.747692 496.167385 675.091692 480.768 668.396308 465.368615 660.007385 451.229538 649.885538 438.272ZM524.681846 194.244923C539.293538 194.244923 552.132923 189.085538 563.160615 178.845538 573.912615 169.353846 579.308308 157.302154 579.308308 142.690462 579.308308 128.315077 573.912615 116.263385 563.160615 106.535385 551.857231 96.531692 539.057231 91.529846 524.681846 91.529846 510.070154 91.529846 497.112615 96.531692 485.848615 106.535385 475.057231 116.263385 469.700923 128.315077 469.700923 142.690462 469.700923 157.302154 475.057231 169.353846 485.848615 178.845538 496.876308 189.085538 509.833846 194.244923 524.681846 194.244923Z"  horiz-adv-x="1024" />

    
    <glyph glyph-name="zititubiao2youla" unicode="&#59137;" d="M319.062779 768.871601c13.020548 0 24.291243-4.761444 33.819247-14.284331l336.762907-336.768023c9.529027-9.522887 14.284331-20.793582 14.284331-33.813107 0-13.030781-4.755304-24.301476-14.284331-33.824363l-336.762907-336.768023c-9.528004-9.522887-20.798698-14.283308-33.819247-14.283308-13.019525 0-24.301476 4.761444-33.824363 14.283308-9.528004 9.528004-14.283308 20.804838-14.283308 33.825386l0 673.523767c0 13.024641 4.755304 24.296359 14.283308 33.824363C294.761304 764.109134 306.043255 768.871601 319.062779 768.871601L319.062779 768.871601z"  horiz-adv-x="1024" />

    
    <glyph glyph-name="zititubiao2zuola" unicode="&#59147;" d="M680.378895-0.870578c-13.019525 0-24.291243 4.762467-33.819247 14.284331l-336.761883 336.768023c-9.528004 9.522887-14.284331 20.793582-14.284331 33.813107 0 13.030781 4.756327 24.301476 14.284331 33.824363l336.761883 336.768023c9.528004 9.522887 20.799722 14.283308 33.819247 14.283308s24.302499-4.76042 33.824363-14.283308c9.529027-9.528004 14.284331-20.804838 14.284331-33.825386l0-673.523767c0-13.024641-4.755304-24.295336-14.284331-33.824363C704.680371 3.890866 693.39842-0.870578 680.378895-0.870578L680.378895-0.870578z"  horiz-adv-x="1024" />

    
    <glyph glyph-name="faxian" unicode="&#58980;" d="M864.251158 534.235676c-19.346627 45.74281-47.040363 86.821391-82.308611 122.092709s-76.345806 62.966077-122.091686 82.314751c-47.371914 20.038382-97.68174 30.198789-149.528572 30.198789-51.848878 0-102.157681-10.160407-149.530618-30.198789-45.744857-19.348674-86.820368-47.044456-122.090663-82.314751s-62.961984-76.348875-82.310657-122.092709c-20.034289-47.369867-30.193673-97.674577-30.193673-149.517315 0-51.853995 10.159384-102.165868 30.193673-149.537781 19.34765-45.746904 47.040363-86.825484 82.310657-122.091686 35.270295-35.268248 76.344782-62.958914 122.092709-82.304518 47.369867-20.032242 97.67867-30.189579 149.528572-30.189579 51.846832 0 102.156658 10.157337 149.526525 30.189579 45.746904 19.34458 86.825484 47.036269 122.092709 82.304518 35.268248 35.266202 62.96096 76.343759 82.308611 122.091686 20.036335 47.371914 30.195719 97.683786 30.195719 149.537781C894.446877 436.5611 884.287493 486.865809 864.251158 534.235676zM749.986741 145.042653c-64.008826-64.006779-149.123342-99.256608-239.663428-99.256608-90.541109 0-175.655625 35.249829-239.666498 99.256608-64.012919 64.010873-99.266841 149.128459-99.266841 239.674685 0 90.526783 35.253922 175.638229 99.266841 239.655242 64.017012 64.020082 149.132552 99.277074 239.666498 99.277074 90.532923 0 175.648462-35.255968 239.663428-99.277074 64.014966-64.018036 99.268888-149.128459 99.268888-239.655242C849.255629 294.172135 814.001707 209.053526 749.986741 145.042653zM618.370121 364.436432c4.317329 15.521508 5.350868 32.208563 2.411933 49.109488-9.367345 53.866838-55.799864 92.961228-110.403482 92.961228-2.839675 0-5.691629-0.127913-8.54256-0.345877l-183.243441 113.819279 83.009576-196.894346 0.297782 0.243547c-4.164856-15.530718-4.939499-31.91078-2.103918-48.219211 9.365298-53.859675 55.792701-92.953042 110.393249-92.953042 2.316765 0 4.638647 0.098237 6.963599 0.243547l183.927009-114.242927L618.370121 364.436432zM444.321086 382.852874c-3.064802 17.619286 0.916882 35.379789 11.213389 50.015114 10.29446 14.634302 25.663496 24.38027 43.278689 27.444049 3.829212 0.664126 7.722892 1.00284 11.56643 1.00284 32.580023 0 60.285015-23.346731 65.87943-55.512315 6.326079-36.382629-18.121729-71.126944-54.493102-77.450976-3.831258-0.669242-7.724938-1.004887-11.574616-1.004887C477.617423 327.347722 449.913455 350.689337 444.321086 382.852874z"  horiz-adv-x="1024" />

    
    <glyph glyph-name="chenggong" unicode="&#58982;" d="M1001.305115 620.125859 431.461709 50.281429c-28.221762-28.221762-73.977875-28.221762-102.20066 0L22.661116 356.883409c-28.222785 28.221762-28.222785 73.979922 0 102.20066 28.221762 28.221762 73.977875 28.221762 102.20066 0l255.500115-255.502162 518.743588 518.743588c28.221762 28.221762 73.977875 28.221762 102.199637 0C1029.5279 694.10578 1029.5279 648.34762 1001.305115 620.125859z"  horiz-adv-x="1024" />

    
    <glyph glyph-name="favorite" unicode="&#59030;" d="M231.906954-58.876478a24.575296 24.575296 0 0 0-24.341849 27.960261l39.91105 286.861951L45.333547 468.0702a24.573248 24.573248 0 0 0 13.542931 41.156095l284.33705 49.883693 139.747036 257.036172a24.572224 24.572224 0 0 0 21.506712 12.835426h0.08191a24.573248 24.573248 0 0 0 21.509783-12.692082L670.865023 554.142096l281.573584-44.85232a24.573248 24.573248 0 0 0 13.614603-41.539028L759.184347 258.388724l42.312061-281.246964a24.576319 24.576319 0 0 0-9.513942-23.282128 24.577343 24.577343 0 0 0-25.00328-2.721487L504.867615 70.961396l-262.227271-127.367239a24.538436 24.538436 0 0 0-10.73339-2.470635zM112.575168 468.749036l178.664917-187.487737a24.5712 24.5712 0 0 0 6.548771-20.338458L262.588702 7.918729l231.225047 112.308957a24.570176 24.570176 0 0 0 20.952789 0.244709l231.37863-105.773497-37.393316 248.549186a24.575296 24.575296 0 0 0 6.8201 20.926168l181.908586 184.101749-246.191178 39.21788a24.568128 24.568128 0 0 0-17.643592 12.38594L504.721199 753.276529 380.727663 525.217336a24.572224 24.572224 0 0 0-17.34257-12.465804l-250.809925-44.002496z"  horiz-adv-x="1024" />

    
    <glyph glyph-name="guaduandianhua" unicode="&#58885;" d="M841.216 39.936c185.856 185.856 185.856 487.424 0 673.792C655.36 899.584 353.792 899.584 167.424 713.728c-185.856-185.856-185.856-487.424 0-673.792 186.368-185.856 487.936-185.856 673.792 0zM218.624 400.896c0 47.616 111.104 113.664 285.696 113.664 175.104 0 285.696-66.048 285.696-113.664 0-40.96 10.752-102.4-73.728-93.184-84.48 9.216-78.848 40.96-78.848 83.456 0 29.696-68.608 36.352-133.12 36.352-65.024 0-133.12-6.656-133.12-36.352 0-42.496 5.632-74.24-78.848-83.456-84.992-9.216-73.728 51.712-73.728 93.184z"  horiz-adv-x="1024" />

    
    <glyph glyph-name="ego-guanbi" unicode="&#58933;" d="M901.844 722.908l-50.052 50.067-338.917-338.915-338.906 338.915-50.091-50.055 338.933-338.921-338.933-338.928 50.091-50.046 338.91 338.912 338.912-338.899 50.052 50.042-338.908 338.917z"  horiz-adv-x="1024" />

    
    <glyph glyph-name="xiala" unicode="&#58966;" d="M787.2 515.2c-9.6 9.6-22.4 12.8-35.2 12.8l-480-3.2c-12.8 0-25.6-3.2-35.2-12.8-19.2-19.2-19.2-48 0-67.2l240-240c3.2-3.2 9.6-6.4 12.8-9.6l3.2-3.2c16-6.4 38.4-3.2 51.2 9.6l240 243.2c22.4 22.4 19.2 51.2 3.2 70.4z"  horiz-adv-x="1024" />

    
    <glyph glyph-name="dingwei" unicode="&#58904;" d="M512.789409-128S156.234477 326.95223 156.234477 521.976153c0 194.989948 159.651417 353.069543 356.554932 353.069542 196.886527 0 356.527952-158.060609 356.527952-353.069542-0.001999-195.030917-356.527952-649.976153-356.527952-649.976153z m-3.699229 800.226612c-83.804229 0-151.769321-67.288599-151.769322-150.326402 0-82.991837 67.954101-150.282435 151.769322-150.282435 83.850194 0 151.785309 67.288599 151.785309 150.282435 0 83.01482-67.930119 150.326402-151.785309 150.326402z"  horiz-adv-x="1024" />

    
    <glyph glyph-name="guanbi1" unicode="&#58897;" d="M516.707105 829.486559c-243.848506 0-441.546917-197.698411-441.546917-441.546917s197.698411-441.546917 441.546917-441.546917 441.546917 197.698411 441.546917 441.546917S760.555611 829.486559 516.707105 829.486559z m227.066653-601.690816c18.419107-18.419107 18.419107-48.503647 0-66.922754s-48.503647-18.419107-66.922754 0L516.707105 321.016888 356.563206 160.872989c-18.419107-18.419107-48.503647-18.419107-66.922754 0s-18.419107 48.503647 0 66.922754l160.143899 160.143899L289.640452 548.083542c-18.419107 18.419107-18.419107 48.503647 0 66.922754 18.419107 18.419107 48.503647 18.419107 66.922754 0l160.143899-160.1439 160.143899 160.1439c18.419107 18.419107 48.503647 18.419107 66.922754 0 18.419107-18.419107 18.419107-48.503647 0-66.922754L583.629859 387.939642l160.143899-160.143899z"  horiz-adv-x="1024" />

    
    <glyph glyph-name="zhangdan" unicode="&#59182;" d="M890.309104 139.381793h-87.441073v59.980239h87.441073c13.730416 0 25.292872 11.562456 25.292872 25.292873s-11.562456 25.292872-25.292872 25.292872H859.957657l15.175723 33.964714c5.781228 13.007763 0 27.460833-13.007762 33.242061-13.007763 5.781228-27.460833 0-33.242061-13.007763l-23.847565-54.199012h-43.35921l-23.847565 54.199012c-5.781228 13.007763-20.234298 18.788991-33.242061 13.007763-13.007763-5.781228-18.788991-20.234298-13.007763-33.242061l15.175723-33.964714H664.841214c-13.730416 0-25.292872-11.562456-25.292872-25.292872s11.562456-25.292872 25.292872-25.292873h87.441073v-59.980239H664.841214c-13.730416 0-25.292872-11.562456-25.292872-25.292873s11.562456-25.292872 25.292872-25.292872h87.441073V21.589273c0-13.730416 11.562456-25.292872 25.292872-25.292872s25.292872 11.562456 25.292872 25.292872v67.206775h87.441073c13.730416 0 25.292872 11.562456 25.292872 25.292872s-11.562456 25.292872-25.292872 25.292873zM565.837685 66.39379H205.956246c-9.394495 0-16.62103 7.949188-16.621031 16.62103V744.242766c0 9.394495 7.949188 16.62103 16.621031 16.621031H787.692308c9.394495 0 16.62103-7.949188 16.62103-16.621031v-336.756527c0-13.730416 11.562456-25.292872 25.292872-25.292873s25.292872 11.562456 25.292873 25.292873V744.242766c0 36.855328-30.351447 67.206775-67.206775 67.206775H205.956246c-36.855328 0-67.206775-30.351447-67.206775-67.206775v-661.950599c0-36.855328 30.351447-67.206775 67.206775-67.206775h359.158786c13.730416 0 25.292872 11.562456 25.292872 25.292872s-10.839802 26.015526-24.570219 26.015526zM715.426958 695.824982H270.99506c-13.730416 0-25.292872-11.562456-25.292872-25.292872s11.562456-25.292872 25.292872-25.292872H715.426958c13.730416 0 25.292872 11.562456 25.292873 25.292872s-11.562456 25.292872-25.292873 25.292872zM740.719831 547.681016c0 13.730416-11.562456 25.292872-25.292873 25.292872H270.99506c-13.730416 0-25.292872-11.562456-25.292872-25.292872s11.562456-25.292872 25.292872-25.292872H715.426958c13.730416 0 25.292872 11.562456 25.292873 25.292872zM274.608327 418.326041m-27.460832 0a27.460833 27.460833 0 1 1 54.921665 0 27.460833 27.460833 0 1 1-54.921665 0ZM370.721242 418.326041m-27.460833 0a27.460833 27.460833 0 1 1 54.921666 0 27.460833 27.460833 0 1 1-54.921666 0ZM466.834157 418.326041m-27.460833 0a27.460833 27.460833 0 1 1 54.921665 0 27.460833 27.460833 0 1 1-54.921665 0Z"  horiz-adv-x="1024" />

    
    <glyph glyph-name="caigou-xianxing" unicode="&#59527;" d="M821.6 640l-78.4-256H342.4L272 640h549.6M216 832H64v-64h104.8l18.4-64 100-361.6c1.6-4.8 4-8.8 7.2-12l-52-83.2c-6.4-5.6-10.4-14.4-10.4-23.2 0-17.6 14.4-32 32-32h568v64H323.2l40 64H768c13.6 0 24.8 8.8 29.6 22.4l97.6 318.4c6.4 20.8-8 43.2-29.6 43.2H252.8l-18.4 64L216 832zM320 64m-64 0a64 64 0 1 1 128 0 64 64 0 1 1-128 0ZM768 64m-64 0a64 64 0 1 1 128 0 64 64 0 1 1-128 0Z"  horiz-adv-x="1024" />

    
    <glyph glyph-name="youhuijuan-xianxing" unicode="&#59544;" d="M896 640v-113.6c-40-36-64-88-64-143.2 0-55.2 24-107.2 64-143.2v-112H128V240.8c40 36 64 88 64 143.2 0 55.2-24 107.2-64 143.2V640h768m32 64H96c-17.6 0-32-14.4-32-32v-178.4c38.4-22.4 64-63.2 64-110.4s-25.6-88.8-64-110.4V96c0-17.6 14.4-32 32-32h832c17.6 0 32 14.4 32 32V272.8c-38.4 22.4-64 63.2-64 110.4s25.6 88.8 64 110.4V672c0 17.6-14.4 32-32 32zM640 448v-64H544v-64h96v-64H544v-96h-64V256H384v64h96v64H384v64h95.2L371.2 555.2l45.6 45.6 96-96L608 600l45.6-45.6L547.2 448H640z"  horiz-adv-x="1024" />

    
    <glyph glyph-name="xin-xianxing" unicode="&#59583;" d="M928 704H96c-17.6 0-32-14.4-32-32v-576c0-17.6 14.4-32 32-32h832c17.6 0 32 14.4 32 32V672c0 17.6-14.4 32-32 32z m-32-576H128V576l384-192 384 192v-448zM512 448L128 640h768L512 448z"  horiz-adv-x="1024" />

    
    <glyph glyph-name="xihuan-xianxing" unicode="&#59587;" d="M700 704c92.8 0 166.4-72.8 166.4-166.4 0-129.6-133.6-251.2-336.8-435.2l-17.6-16-17.6 16C291.2 286.4 157.6 408 157.6 537.6c0 92.8 72.8 166.4 166.4 166.4 52.8 0 104.8-24 140-64.8l48.8-56.8 48.8 56.8c33.6 40 86.4 64.8 138.4 64.8m0 64c-72.8 0-142.4-33.6-188-87.2C466.4 733.6 396.8 768 324 768c-128.8 0-230.4-100.8-230.4-230.4 0-157.6 142.4-287.2 357.6-482.4L512 0l60.8 55.2c215.2 196 357.6 324.8 357.6 482.4 0 128.8-100.8 230.4-230.4 230.4z"  horiz-adv-x="1024" />

    
    <glyph glyph-name="paizhao-xianxing" unicode="&#59601;" d="M601.6 640l76.8-96H896v-480H128V544h201.6l76.8 96h195.2m30.4 64H376l-76.8-96H128c-35.2 0-64-28.8-64-64v-480c0-35.2 28.8-64 64-64h768c35.2 0 64 28.8 64 64V544c0 35.2-28.8 64-64 64H708.8L632 704zM512 512c-106.4 0-192-85.6-192-192s85.6-192 192-192 192 85.6 192 192-85.6 192-192 192z m0-320c-70.4 0-128 57.6-128 128s57.6 128 128 128 128-57.6 128-128-57.6-128-128-128z"  horiz-adv-x="1024" />

    
    <glyph glyph-name="haoping" unicode="&#59608;" d="M320 61.6V404.8c0 10.4 5.6 20 14.4 25.6 79.2 48 220 168.8 220 271.2 0 4.8-5.6 66.4 40.8 66.4 0 0 118.4-28 44.8-320h208s47.2 4 47.2-48.8c0 0 2.4-66.4-67.2-324.8 0 0-21.6-74.4-48.8-74.4 0 0-340 32-431.2 32-15.2 0-28 13.6-28 29.6z m-173.6-34.4l96 4c8 1.6 13.6 8 13.6 16V401.6c0 8-5.6 14.4-13.6 16l-96 3.2c-9.6 1.6-18.4-5.6-18.4-16v-361.6c-0.8-10.4 8-17.6 18.4-16z"  horiz-adv-x="1024" />

    
    <glyph glyph-name="zhixiangzuo" unicode="&#59636;" d="M896 352H250.4l242.4-242.4L448 64 173.6 338.4 128 384l45.6 45.6L448 704l45.6-45.6L250.4 416H896v-64z"  horiz-adv-x="1024" />

    
    <glyph glyph-name="zhixiangyou" unicode="&#59637;" d="M128 416h645.6L530.4 658.4 576 704l274.4-274.4L896 384l-45.6-45.6L576 64l-45.6 45.6L773.6 352H128v64z"  horiz-adv-x="1024" />

    
    <glyph glyph-name="zhixiangshang" unicode="&#59638;" d="M480 0V645.6L237.6 402.4 192 448l274.4 274.4L512 768l45.6-45.6L832 448l-45.6-45.6L544 645.6V0h-64z"  horiz-adv-x="1024" />

    
    <glyph glyph-name="zhixiangxia" unicode="&#59639;" d="M544 768v-645.6l242.4 242.4L832 320l-274.4-274.4L512 0l-45.6 45.6L192 320l45.6 45.6L480 122.4V768h64z"  horiz-adv-x="1024" />

    
    <glyph glyph-name="weizhi-xianxing" unicode="&#59646;" d="M512 768c169.6 0 308-138.4 308-308 0-81.6-31.2-158.4-88.8-216l-4.8-4L512 26.4 298.4 239.2l-4.8 4.8c-57.6 57.6-88.8 134.4-88.8 216C204 629.6 342.4 768 512 768m0 64C306.4 832 140 665.6 140 460c0-101.6 40.8-194.4 107.2-261.6L512-64l264 263.2c66.4 67.2 107.2 159.2 107.2 261.6C884 665.6 717.6 832 512 832z m0-192c73.6 0 132.8-62.4 128-137.6-4.8-63.2-55.2-113.6-118.4-118.4-74.4-5.6-137.6 53.6-137.6 128 0 70.4 57.6 128 128 128"  horiz-adv-x="1024" />

    
    <glyph glyph-name="shuaxin1" unicode="&#59035;" d="M81.92 261.12h194.56c12.288 0 20.48-8.192 20.48-20.48s-8.192-20.48-20.48-20.48h-161.792c69.632-155.648 225.28-260.096 401.408-260.096 184.32 0 348.16 114.688 411.648 284.672 4.096 10.24 16.384 16.384 26.624 12.288 10.24-4.096 16.384-16.384 12.288-26.624-69.632-186.368-247.808-311.296-450.56-311.296-180.224 0-342.016 100.352-423.936 253.952v-135.168c0-12.288-8.192-20.48-20.48-20.48s-20.48 8.192-20.48 20.48v204.8c0 6.144 2.048 10.24 6.144 14.336s8.192 6.144 14.336 6.144h10.24z m860.16 245.76h-194.56c-12.288 0-20.48 8.192-20.48 20.48s8.192 20.48 20.48 20.48h161.792c-69.632 155.648-225.28 260.096-401.408 260.096-184.32 0-348.16-114.688-411.648-284.672-4.096-10.24-16.384-16.384-26.624-12.288-10.24 4.096-16.384 16.384-12.288 26.624 69.632 186.368 247.808 311.296 450.56 311.296 180.224 0 342.016-100.352 423.936-253.952v135.168c0 12.288 8.192 20.48 20.48 20.48s20.48-8.192 20.48-20.48v-204.8c0-6.144-2.048-10.24-6.144-14.336s-8.192-6.144-14.336-6.144h-10.24z"  horiz-adv-x="1024" />

    
    <glyph glyph-name="businesscard" unicode="&#59110;" d="M736 544h-192a32 32 0 1 1 0-64h192a32 32 0 1 1 0 64M736 416h-128a32 32 0 1 1 0-64h128a32 32 0 1 1 0 64M736 288h-128a32 32 0 1 1 0-64h128a32 32 0 1 1 0 64M831.936 128L192 127.776 192.096 640 832 640.224l0.224-512.192-0.32-0.032m0 576H192.128A64.032 64.032 0 0 1 128 640.224v-512.448C128 92.64 156.768 64 192.096 64h639.84A64 64 0 0 1 896 127.776V640.224A64 64 0 0 1 831.936 704M480 273.856H288v20.736c20.64 8.32 63.84 23.04 96 23.04 31.744 0 74.656-14.496 96-23.072v-20.704zM355.36 454.4c0 14.368 11.232 25.6 25.504 25.6a25.6 25.6 0 0 0 25.504-25.6v-41.92a25.28 25.28 0 0 0-25.504-25.632 25.6 25.6 0 0 0-25.504 25.6V454.4z m157.088-104a483.2 483.2 0 0 1-53.664 18.88c7.168 12.864 11.584 27.456 11.584 43.2V454.4c0 49.408-40.16 89.6-89.504 89.6a89.664 89.664 0 0 1-89.504-89.6v-41.92c0-16.352 4.736-31.52 12.416-44.736-26.56-8-46.272-16.512-47.296-16.992A53.152 53.152 0 0 1 224 302.4v-55.904l1.696-4.992c6.464-18.976 24.032-31.68 43.712-31.68h229.184a45.44 45.44 0 0 1 45.28 42.016L544 302.4c0 20.576-13.28 40.416-31.552 47.968z"  horiz-adv-x="1024" />

    
    <glyph glyph-name="setup" unicode="&#59176;" d="M825.312 329.184a127.04 127.04 0 0 1-91.616-62.624 127.232 127.232 0 0 1-8.448-110.56 318.976 318.976 0 0 0-113.216-65.472A127.072 127.072 0 0 1 512 138.56a127.2 127.2 0 0 1-100.064-48 319.232 319.232 0 0 0-113.216 65.44 127.232 127.232 0 0 1-8.416 110.56 127.04 127.04 0 0 1-91.648 62.624 323.232 323.232 0 0 0 0 130.784 127.104 127.104 0 0 1 91.648 62.592 127.296 127.296 0 0 1 8.416 110.592 318.976 318.976 0 0 0 113.216 65.472A127.232 127.232 0 0 1 512 650.56c39.712 0 76.064 17.92 100.032 48.064a318.72 318.72 0 0 0 113.216-65.472 127.328 127.328 0 0 1 8.448-110.592 127.104 127.104 0 0 1 91.616-62.592 321.536 321.536 0 0 0 0-130.784m56.16 170.304a31.776 31.776 0 0 1-32.832 23.2 63.584 63.584 0 0 0-59.52 31.872 63.744 63.744 0 0 0 2.112 67.52 32 32 0 0 1-3.68 39.936 383.392 383.392 0 0 1-181.696 104.992 31.968 31.968 0 0 1-36.48-16.832A63.68 63.68 0 0 0 512 714.56a63.68 63.68 0 0 0-57.376 35.616 32 32 0 0 1-36.48 16.832 383.264 383.264 0 0 1-181.696-104.96 32 32 0 0 1-3.712-40 63.68 63.68 0 0 0 2.112-67.488 63.68 63.68 0 0 0-59.52-31.872 31.52 31.52 0 0 1-32.8-23.2A383.136 383.136 0 0 1 128 394.56c0-35.648 4.864-70.944 14.528-104.896a31.904 31.904 0 0 1 32.8-23.2 64.032 64.032 0 0 0 59.52-31.904c12.256-21.184 11.456-47.04-2.112-67.456a32 32 0 0 1 3.712-39.968 382.88 382.88 0 0 1 181.696-104.96 31.936 31.936 0 0 1 36.48 16.8A63.648 63.648 0 0 0 512 74.56c24.512 0 46.496-13.632 57.376-35.584a32 32 0 0 1 36.48-16.832 383.04 383.04 0 0 1 181.696 104.992 32 32 0 0 1 3.68 40 63.68 63.68 0 0 0-2.112 67.424 63.136 63.136 0 0 0 59.52 31.904c15.04-0.896 28.704 8.736 32.832 23.2A384.64 384.64 0 0 1 896 394.56c0 35.648-4.896 70.944-14.528 104.96M512 298.56c-52.928 0-96 43.104-96 96 0 52.96 43.072 96 96 96s96-43.04 96-96c0-52.896-43.072-96-96-96m0 256c-88.224 0-160-71.744-160-160 0-88.224 71.776-160 160-160s160 71.808 160 160c0 88.256-71.776 160-160 160"  horiz-adv-x="1024" />

    
    <glyph glyph-name="xinzeng1" unicode="&#58946;" d="M981.333333 426.666667H554.666667V853.333333c0 23.466667-19.2 42.666667-42.666667 42.666667s-42.666667-19.2-42.666667-42.666667v-426.666666H42.666667c-23.466667 0-42.666667-19.2-42.666667-42.666667s19.2-42.666667 42.666667-42.666667h426.666666v-426.666666c0-23.466667 19.2-42.666667 42.666667-42.666667s42.666667 19.2 42.666667 42.666667V341.333333h426.666666c23.466667 0 42.666667 19.2 42.666667 42.666667s-19.2 42.666667-42.666667 42.666667"  horiz-adv-x="1024" />

    
    <glyph glyph-name="gengduo" unicode="&#58989;" d="M81.28 673.984h861.44c27.264 0 49.28 21.504 49.28 48s-22.016 48-49.28 48H81.28c-27.2 0-49.28-21.504-49.28-48s22.08-48 49.28-48zM942.72 433.984H81.28c-27.264 0-49.28-21.504-49.28-48s22.016-48 49.28-48h861.44c27.264 0 49.28 21.504 49.28 48s-22.144 48-49.28 48zM942.72 94.016H81.28c-27.2 0-49.28-21.504-49.28-48s22.08-48 49.28-48h861.44c27.264 0 49.28 21.504 49.28 48s-22.016 48-49.28 48z"  horiz-adv-x="1024" />

    
    <glyph glyph-name="shoucang1" unicode="&#58992;" d="M1003.2 495.68a49.408 49.408 0 0 1-17.472 13.824 42.88 42.88 0 0 1-17.6 7.04l-298.496 42.304L550.4 831.744a44.928 44.928 0 0 1-43.776 25.92 44.992 44.992 0 0 1-43.84-25.92l-119.04-272.512-294.336-41.728a44.928 44.928 0 0 1-36.736-35.2 44.992 44.992 0 0 1 13.312-49.152l225.856-183.936-85.952-277.76a44.864 44.864 0 0 1 16.128-48.128 44.8 44.8 0 0 1 50.24-8.96l281.024 134.656 272.576-130.624a44.8 44.8 0 0 1 50.24 8.896 44.8 44.8 0 0 1 16.128 48.192l-85.504 276.416 230.336 178.304c19.584 15.232 22.272 44.544 6.144 65.472z"  horiz-adv-x="1024" />

    
    <glyph glyph-name="hongbao-xianxing" unicode="&#59703;" d="M768 832H256c-35.2 0-64-28.8-64-64v-768c0-35.2 28.8-64 64-64h512c35.2 0 64 28.8 64 64V768c0 35.2-28.8 64-64 64z m0-64v-53.6L512 672l-256 42.4V768h512z m-512-768V682.4L512 640l256 42.4V0H256z m393.6 406.4L563.2 320H640v-64H544v-32h96v-64H544v-96h-64V160H384v64h96v32H384v64h76.8L374.4 406.4l45.6 45.6L512 359.2l92 92 45.6-44.8z"  horiz-adv-x="1024" />

    
    <glyph glyph-name="jian-tianchong" unicode="&#59027;" d="M512 896C228.266667 896 0 667.733333 0 384s228.266667-512 512-512 512 228.266667 512 512S795.733333 896 512 896z m256-533.333333H256c-12.8 0-21.333333 8.533333-21.333333 21.333333s8.533333 21.333333 21.333333 21.333333h512c12.8 0 21.333333-8.533333 21.333333-21.333333s-8.533333-21.333333-21.333333-21.333333z"  horiz-adv-x="1024" />

    
    <glyph glyph-name="kefu" unicode="&#58917;" d="M55.351351 342.597189v-110.924108a83.027027 83.027027 0 0 1 166.054054 0v110.924108a83.027027 83.027027 0 0 1-166.054054 0z m763.101406-211.552865A137.852541 137.852541 0 0 0 774.918919 231.673081v110.924108A138.378378 138.378378 0 0 0 912.328649 480.864865C898.131027 681.928649 730.499459 840.648649 525.837838 840.648649 321.148541 840.648649 153.544649 681.928649 139.347027 480.864865A138.461405 138.461405 0 0 0 276.756757 342.597189v-110.924108a138.378378 138.378378 0 0 0-276.756757 0v110.924108a138.378378 138.378378 0 0 0 83.303784 126.865297C91.883243 706.476973 286.72 896 525.837838 896s433.954595-189.523027 442.534054-426.537514A138.461405 138.461405 0 0 0 1051.675676 342.597189v-110.924108a138.378378 138.378378 0 0 0-184.790487-130.269405 470.763243 470.763243 0 0 0-188.858811-121.21946A96.809514 96.809514 0 0 0 580.912432-114.162162h-82.528864c-53.690811 0-97.113946 43.174054-97.113946 96.864865 0 53.607784 43.284757 96.864865 97.141621 96.864865h82.473514c34.954378 0 65.536-18.265946 82.639567-45.803244a415.273514 415.273514 0 0 1 154.900757 97.28zM830.27027 342.597189v-110.924108a83.027027 83.027027 0 0 1 166.054054 0v110.924108a83.027027 83.027027 0 0 1-166.054054 0zM498.438919-58.810811h82.473513c23.302919 0 41.79027 18.487351 41.790271 41.513514 0 23.053838-18.570378 41.513514-41.790271 41.513513h-82.473513c-23.302919 0-41.79027-18.487351-41.79027-41.513513 0-23.053838 18.570378-41.513514 41.79027-41.513514z"  horiz-adv-x="1051" />

    
    <glyph glyph-name="wode" unicode="&#58927;" d="M512 332.8c-127.9744 0-230.4 115.2512-230.4 256s102.4256 256 230.4 256 230.4-115.2512 230.4-256-102.4256-256-230.4-256z m0 51.2c98.2528 0 179.2 91.0592 179.2 204.8s-80.9472 204.8-179.2 204.8-179.2-91.0592-179.2-204.8 80.9472-204.8 179.2-204.8zM128 102.4a179.2 179.2 0 0 0 179.3792 179.2h409.2416C815.6416 281.6 896 201.2672 896 102.4a179.2 179.2 0 0 0-179.3792-179.2H307.3792C208.3584-76.8 128 3.5328 128 102.4z m51.2 0c0-70.5792 57.4464-128 128.1792-128h409.2416A128 128 0 0 1 844.8 102.4c0 70.5792-57.4464 128-128.1792 128H307.3792A128 128 0 0 1 179.2 102.4z"  horiz-adv-x="1024" />

    
    <glyph glyph-name="shouye" unicode="&#58926;" d="M362.666667 0.085333V256.149333c0 36.266667 33.109333 63.850667 72.533333 63.850667h153.6c39.253333 0 72.533333-27.648 72.533333-63.850667v-256.064h59.904c61.269333 0 110.762667 47.957333 110.762667 106.730667V481.834667L557.162667 756.672a63.808 63.808 0 0 1-90.325334 0L192 481.834667v-375.018667c0-58.88 49.386667-106.730667 110.762667-106.730667H362.666667z m42.666666 0h213.333334V256.149333c0 10.709333-12.586667 21.184-29.866667 21.184h-153.6c-17.408 0-29.866667-10.389333-29.866667-21.184v-256.064z m469.333334 439.082667v-332.352c0-82.645333-68.885333-149.397333-153.429334-149.397333H302.762667C218.133333-42.581333 149.333333 24.064 149.333333 106.816V439.168l-27.584-27.584a21.333333 21.333333 0 1 0-30.165333 30.165333L436.672 786.837333a106.474667 106.474667 0 0 0 150.656 0l345.088-345.088a21.333333 21.333333 0 0 0-30.165333-30.165333L874.666667 439.168z"  horiz-adv-x="1024" />

    
    <glyph glyph-name="fenlei" unicode="&#58928;" d="M575.68 160a160.32 160.32 0 1 1 160.32 160.32H599.893333c-13.461333 0-24.192-10.752-24.192-24.192V160zM736 362.666667A202.666667 202.666667 0 1 0 533.333333 160V296.106667A66.432 66.432 0 0 0 599.872 362.666667H736zM490.666667 160a202.666667 202.666667 0 1 0-202.666667 202.666667h136.128A66.432 66.432 0 0 0 490.666667 296.128V160z m-202.666667 160.32a160.32 160.32 0 1 1 160.32-160.32V296.106667c0 13.44-10.730667 24.192-24.192 24.192H288zM533.333333 608.021333A202.666667 202.666667 0 1 0 736 405.333333H599.893333A66.432 66.432 0 0 0 533.333333 471.872V608z m202.666667-160.341333a160.32 160.32 0 1 1-160.32 160.32v-136.128c0-13.44 10.730667-24.192 24.192-24.192H736zM448.32 608a160.32 160.32 0 1 1-160.32-160.32h136.128c13.461333 0 24.192 10.752 24.192 24.192V608zM288 405.333333A202.666667 202.666667 0 1 0 490.666667 608v-136.128A66.432 66.432 0 0 0 424.128 405.333333H288z"  horiz-adv-x="1024" />

    
    <glyph glyph-name="xiaoxi" unicode="&#58929;" d="M490.752 104.768A21.333333 21.333333 0 0 0 512 128c13.866667 0 27.669333 0.618667 41.344 1.834667C748.032 147.221333 896 284.906667 896 448c0 175.850667-171.178667 320-384 320S128 623.850667 128 448c0-89.770667 44.693333-173.845333 122.410667-234.176a21.333333 21.333333 0 0 0-26.154667-33.706667C136.512 248.234667 85.333333 344.490667 85.333333 448c0 201.173333 191.765333 362.666667 426.666667 362.666667s426.666667-161.493333 426.666667-362.666667c0-186.816-166.186667-341.44-381.525334-360.661333-8.96-0.789333-17.92-1.365333-26.965333-1.685334-18.986667-73.557333-82.602667-116.778667-161.002667-127.445333-31.616-4.309333-61.952-2.197333-80.554666 5.866667-32.917333 14.250667-30.037333 46.933333 3.178666 64.256 20.352 10.602667 31.893333 25.450667 37.013334 44.224 4.48 16.490667 3.712 34.922667-0.426667 52.565333a95.061333 95.061333 0 0 1-3.114667 10.965333 21.333333 21.333333 0 0 0 39.893334 15.189334c1.28-3.456 3.072-9.088 4.778666-16.448 5.589333-23.957333 6.634667-49.152 0.021334-73.472a108.842667 108.842667 0 0 0-44.096-62.229334c10.752-0.853333 23.893333-0.512 37.546666 1.344 65.877333 8.981333 116.053333 44.714667 127.338667 104.32zM352 469.333333a21.333333 21.333333 0 0 0 0 42.666667h341.333333a21.333333 21.333333 0 0 0 0-42.666667h-341.333333z m0-128a21.333333 21.333333 0 0 0 0 42.666667h213.333333a21.333333 21.333333 0 0 0 0-42.666667h-213.333333z"  horiz-adv-x="1024" />

    
    <glyph glyph-name="sousuo" unicode="&#58930;" d="M474.453333 11.946667c-225.28 0-409.6 184.32-409.6 409.6s184.32 409.6 409.6 409.6 409.6-184.32 409.6-409.6-184.32-409.6-409.6-409.6z m0 68.266666c187.733333 0 341.333333 153.6 341.333334 341.333334s-153.6 341.333333-341.333334 341.333333-341.333333-153.6-341.333333-341.333333 153.6-341.333333 341.333333-341.333334z m252.586667-54.613333c-13.653333 13.653333-10.24 37.546667 3.413333 47.786667s37.546667 10.24 47.786667-3.413334l64.853333-78.506666c13.653333-13.653333 10.24-37.546667-3.413333-47.786667s-37.546667-10.24-47.786667 3.413333l-64.853333 78.506667z"  horiz-adv-x="1024" />

    
    <glyph glyph-name="guanyanren" unicode="&#58943;" d="M277.568 53.290667A403.477333 403.477333 0 0 1 512-21.333333c87.36 0 168.256 27.626667 234.432 74.624C740.885333 177.962667 638.058667 277.333333 512 277.333333c-126.037333 0-228.864-99.370667-234.432-224.042666z m-39.637333 32.064c15.36 99.413333 83.498667 181.376 174.890666 216.384A213.312 213.312 0 0 0 298.666667 490.666667c0 117.824 95.509333 213.333333 213.333333 213.333333s213.333333-95.509333 213.333333-213.333333a213.312 213.312 0 0 0-114.154666-188.928c91.392-34.986667 159.530667-116.970667 174.890666-216.384A404.266667 404.266667 0 0 1 917.333333 384c0 223.850667-181.482667 405.333333-405.333333 405.333333S106.666667 607.850667 106.666667 384a404.266667 404.266667 0 0 1 131.264-298.645333zM512-64C264.576-64 64 136.576 64 384S264.576 832 512 832s448-200.576 448-448-200.576-448-448-448z m0 384a170.666667 170.666667 0 1 1 0 341.333333 170.666667 170.666667 0 0 1 0-341.333333z"  horiz-adv-x="1024" />

    
    <glyph glyph-name="dizhiguanli" unicode="&#58944;" d="M821.653333 262.186667L576.533333-21.333333a85.333333 85.333333 0 0 0-129.066666-0.064L198.634667 266.048c-1.152 1.322667-2.133333 2.773333-2.88 4.266667A361.088 361.088 0 0 0 149.333333 448c0 200.298667 162.368 362.666667 362.666667 362.666667s362.666667-162.368 362.666667-362.666667c0-63.744-16.490667-125.162667-47.381334-179.370667a21.269333 21.269333 0 0 0-5.632-6.421333zM792.32 293.546667A318.442667 318.442667 0 0 1 832 448c0 176.725333-143.274667 320-320 320-176.725333 0-320-143.274667-320-320 0-55.317333 14.037333-108.522667 40.384-155.733333l247.317333-285.738667a42.666667 42.666667 0 0 1 64.554667 0.021333L792.32 293.546667zM512 298.666667a149.333333 149.333333 0 1 0 0 298.666666 149.333333 149.333333 0 0 0 0-298.666666z m0 42.666666a106.666667 106.666667 0 1 1 0 213.333334 106.666667 106.666667 0 0 1 0-213.333334z"  horiz-adv-x="1024" />

    
    <glyph glyph-name="daifukuan" unicode="&#58945;" d="M146.645333 299.989333a21.717333 21.717333 0 0 0-8.789333 7.061334L68.224 402.133333a21.824 21.824 0 1 0 35.2 25.792l27.690667-37.802666C139.2 611.968 321.6 789.333333 545.408 789.333333 774.4 789.333333 960 603.733333 960 374.762667s-185.6-414.592-414.570667-414.592c-147.882667 0-282.24 78.08-356.48 202.837333a21.824 21.824 0 1 0 37.482667 22.314667 370.688 370.688 0 0 1 318.997333-181.504c204.864 0 370.922667 166.08 370.922667 370.944 0 204.864-166.058667 370.922667-370.922667 370.922666-204.864 0-370.944-166.058667-370.944-370.922666 0-17.621333 1.216-35.072 3.626667-52.266667a21.824 21.824 0 0 0-31.466667-22.506667z m420.586667 74.773334v-65.472h152.746667a21.824 21.824 0 0 0 0-43.626667h-152.746667v-130.922667a21.824 21.824 0 1 0-43.626667 0v130.922667h-152.746666a21.824 21.824 0 0 0 0 43.626667h152.746666v65.472h-152.746666a21.824 21.824 0 0 0 0 43.626666h140.202666l-151.936 124.992a21.824 21.824 0 1 0 27.712 33.706667l159.637334-131.306667L706.133333 577.066667a21.824 21.824 0 1 0 27.733334-33.706667l-151.957334-124.970667h138.090667a21.824 21.824 0 0 0 0-43.626666h-152.746667z"  horiz-adv-x="1024" />

    
    <glyph glyph-name="changyonggoupiaorenbianji" unicode="&#58949;" d="M864 394.976a32 32 0 1 0 64 0V128a160 160 0 0 0-160-160H256a160 160 0 0 0-160 160V640a160 160 0 0 0 160 160h304.576a32 32 0 1 0 0-64H256a96 96 0 0 1-96-96v-512a96 96 0 0 1 96-96h512a96 96 0 0 1 96 96v266.976z m-13.824 353.056a32 32 0 0 0 46.784-43.648L547.84 329.92a32 32 0 1 0-46.816 43.648L850.176 748.032z"  horiz-adv-x="1024" />

    
    <glyph glyph-name="changyonggoupiaorenshanchu" unicode="&#58950;" d="M96 576a32 32 0 1 0 0 64h832a32 32 0 0 0 0-64H96z m736 0h64v-448a160 160 0 0 0-160-160H288a160 160 0 0 0-160 160V576h64v-96H128v96h64v-448a96 96 0 0 1 96-96h448a96 96 0 0 1 96 96V576z m-512-112a32 32 0 0 0 64 0v-320a32 32 0 0 0-64 0v320z m320 0a32 32 0 0 0 64 0v-320a32 32 0 0 0-64 0v320zM288 640H224V704a96 96 0 0 0 96 96h384a96 96 0 0 0 96-96v-64h-64V672h64v-32h-64V704a32 32 0 0 1-32 32H320a32 32 0 0 1-32-32v-64z"  horiz-adv-x="1024" />

    
    <glyph glyph-name="jianting" unicode="&#59263;" d="M512 832c-211.2 0-384-172.8-384-384v-160c0-54.4 41.6-96 96-96h64c54.4 0 96 41.6 96 96v96c0 54.4-41.6 96-96 96h-64c-9.6 0-22.4-3.2-32-6.4 16 166.4 153.6 294.4 320 294.4s304-128 320-294.4c-9.6 3.2-19.2 6.4-32 6.4h-64c-54.4 0-96-41.6-96-96v-96c0-54.4 41.6-96 96-96h64c9.6 0 19.2 3.2 28.8 3.2-12.8-73.6-76.8-131.2-156.8-131.2h-6.4c-12.8 38.4-48 64-89.6 64h-64c-54.4 0-96-41.6-96-96s41.6-96 96-96h64c41.6 0 76.8 25.6 89.6 64h6.4c124.8 0 224 99.2 224 224v224c0 211.2-172.8 384-384 384z m-288-416h64c19.2 0 32-12.8 32-32v-96c0-19.2-12.8-32-32-32h-64c-19.2 0-32 12.8-32 32v96c0 19.2 12.8 32 32 32z m352-416h-64c-19.2 0-32 12.8-32 32s12.8 32 32 32h64c19.2 0 32-12.8 32-32s-12.8-32-32-32z m256 288c0-19.2-12.8-32-32-32h-64c-19.2 0-32 12.8-32 32v96c0 19.2 12.8 32 32 32h64c19.2 0 32-12.8 32-32v-96z"  horiz-adv-x="1024" />

    
    <glyph glyph-name="liebiao" unicode="&#58880;" d="M341.333 725.333h568.89v-113.777h-568.89z m-227.555 0h113.778v-113.777H113.778z m0-284.444h113.778V327.11H113.778z m0-284.445h113.778v-113.777H113.778z m227.555 0h568.89v-113.777h-568.89z m0 284.445h568.89V327.11h-568.89z"  horiz-adv-x="1024" />

    
    <glyph glyph-name="guaduan" unicode="&#59017;" d="M165.12 245.76c97.28 0 143.36 40.96 153.6 81.92V399.36v10.24s46.08 35.84 194.56 40.96c148.48 0 194.56-35.84 194.56-35.84s5.12-5.12 5.12-10.24V332.8c5.12-61.44 107.52-76.8 148.48-81.92 40.96-5.12 76.8 0 112.64 25.6 25.6 20.48 46.08 56.32 51.2 107.52 5.12 46.08-5.12 87.04-25.6 112.64-15.36 20.48-133.12 153.6-476.16 158.72H508.16c-291.84 0-419.84-92.16-460.8-138.24-15.36-20.48-20.48-30.72-20.48-30.72S1.28 455.68 1.28 430.08c0 0-5.12-56.32 5.12-107.52 20.48-76.8 133.12-76.8 158.72-76.8z m-87.04 97.28c-10.24 35.84-5.12 81.92-5.12 81.92 0 5.12 5.12 15.36 10.24 20.48 0 0 97.28 128 424.96 128h10.24c327.68 0 419.84-128 419.84-128l5.12-5.12c5.12-10.24 15.36-30.72 10.24-61.44-5.12-30.72-15.36-46.08-20.48-56.32-20.48-15.36-35.84-15.36-66.56-10.24-46.08 5.12-76.8 15.36-87.04 25.6V399.36c0 20.48-10.24 40.96-25.6 56.32-10.24 10.24-66.56 56.32-240.64 56.32-174.08 0-230.4-51.2-240.64-56.32-15.36-15.36-25.6-40.96-25.6-61.44v-56.32c-5.12-5.12-30.72-25.6-87.04-25.6-40.96 0-81.92 15.36-81.92 30.72z"  horiz-adv-x="1026" />

    
    <glyph glyph-name="mima" unicode="&#58981;" d="M714.8 471.5v181c0 76-61.9 137.9-137.9 137.9H445.6c-76 0-137.9-61.9-137.9-137.9v-181H168.9v-493.8H855V471.5H714.8zM353.7 652.4c0 50.7 41.2 91.9 91.9 91.9h131.3c50.7 0 91.9-41.2 91.9-91.9v-181H353.7v181z m455.4-628.7H214.9V425.5H809v-401.8zM489 172.8v-107.9h46v108c36.8 10.1 63.8 43.9 63.8 83.8 0 47.9-39 86.9-86.9 86.9-47.9 0-86.9-39-86.9-86.9 0-40 27.2-73.8 64-83.9z m22.9 124.8c22.6 0 40.9-18.4 40.9-40.9s-18.4-40.9-40.9-40.9c-22.6 0-40.9 18.4-40.9 40.9s18.3 40.9 40.9 40.9z"  horiz-adv-x="1024" />

    
    <glyph glyph-name="-shanglajiantou" unicode="&#58901;" d="M160.768 305.664l314.368 314.368c20.48 20.48 53.248 20.48 73.728 0l314.368-314.368c32.768-32.768 9.728-89.088-36.864-89.088H197.632c-46.592 0-69.632 56.32-36.864 89.088z"  horiz-adv-x="1024" />

    
    <glyph glyph-name="shengyin" unicode="&#58979;" d="M682.666667 554.666667l102.4 0 0-341.333334-102.4 0 0 341.333334ZM204.8 213.333333H0V554.666667h204.8L580.266667 896v-1024zM921.6 759.466667l102.4 0 0-750.933334-102.4 0 0 750.933334Z"  horiz-adv-x="1024" />

    
    <glyph glyph-name="shijian" unicode="&#58890;" d="M512 768c-211.7 0-384-172.3-384-384s172.3-384 384-384 384 172.3 384 384-172.3 384-384 384z m0-717.4c-183.8 0-333.4 149.6-333.4 333.4S328.2 717.4 512 717.4 845.4 567.8 845.4 384 695.8 50.6 512 50.6zM698.1 409.3H537.3V657.5c0 14-11.3 25.3-25.3 25.3s-25.3-11.3-25.3-25.3V384c0-14 11.3-25.3 25.3-25.3h186.1c14 0 25.3 11.3 25.3 25.3s-11.3 25.3-25.3 25.3z"  horiz-adv-x="1024" />

    
    <glyph glyph-name="fenxiang" unicode="&#58900;" d="M704.1 510c-81 0-147 65.9-147 147s66 147 147 147 147-65.9 147-147-66-147-147-147z m0 252c-57.9 0-105-47.1-105-105s47.1-105 105-105 105 47.1 105 105-47.1 105-105 105zM239 236.7c-81 0-147 65.9-147 147s66 147 147 147 147-65.9 147-147-66-147-147-147z m0 252c-57.9 0-105-47.1-105-105s47.1-105 105-105 105 47.1 105 105-47.1 105-105 105zM785-36c-81 0-147 65.9-147 147s66 147 147 147 147-65.9 147-147-66-147-147-147z m0 252c-57.9 0-105-47.1-105-105s47.1-105 105-105 105 47.1 105 105-47.1 105-105 105zM346.9 427.8c-7.4 0-14.6 3.9-18.4 10.9-5.6 10.2-1.8 22.9 8.3 28.5L589 605.7c10.3 5.6 22.9 1.9 28.5-8.3s1.8-22.9-8.3-28.5L356.9 430.4c-3.2-1.7-6.6-2.6-10-2.6zM663 132.5c-3.1 0-6.3 0.7-9.3 2.2L333.3 293.2c-10.4 5.1-14.7 17.8-9.5 28.1 5.1 10.4 17.7 14.7 28.1 9.5l320.4-158.6c10.4-5.1 14.7-17.7 9.5-28.1-3.6-7.3-11-11.6-18.8-11.6z"  horiz-adv-x="1024" />

    
    <glyph glyph-name="jianhao" unicode="&#58920;" d="M512-128C230.4-128 0 102.4 0 384S230.4 896 512 896s512-230.4 512-512-230.4-512-512-512z m0 981.333333C253.866667 853.333333 42.666667 642.133333 42.666667 384s211.2-469.333333 469.333333-469.333333 469.333333 211.2 469.333333 469.333333S770.133333 853.333333 512 853.333333zM765.866667 362.666667h-512c-10.666667 0-19.2 8.533333-19.2 19.2V384c0 10.666667 8.533333 19.2 19.2 19.2H768c10.666667 0 19.2-8.533333 19.2-19.2 2.133333-10.666667-8.533333-21.333333-21.333333-21.333333z"  horiz-adv-x="1024" />

    
    <glyph glyph-name="xiaotuziCduan_" unicode="&#58893;" d="M752.57 285.92c20.75-25.85 6.46-68.58-35.05-68.58H306.93c-41.5 0-56.38 42.73-35.63 68.58l194.24 245.35c20.75 25.85 72.63 25.85 93.38 0l193.65-245.35z"  horiz-adv-x="1024" />

    
    <glyph glyph-name="pinglun" unicode="&#58883;" d="M853 724.6v-564H538c-8.8 0-17.4-2.6-24.7-7.4l-3.7-2.4-162.7-106.6c-1.2-0.8-2.5-1.2-3.9-1.2v83.5c0 18.8-15.2 34.1-34.1 34.1H173v564h680m0 60H173c-33.1 0-60-26.9-60-60v-564c0-33.1 26.9-60 60-60h110V3c0-11 9-20 20-20h54.2c4.4 0 8.7 1.5 12.2 4.2l173 113.4H853c33.1 0 60 26.9 60 60v564c0 33.2-26.9 60-60 60zM343 382.9h342v-60H343zM343 562.4h342v-60H343z"  horiz-adv-x="1024" />

    
    <glyph glyph-name="guanzhu1" unicode="&#58921;" d="M717.7 253.3c7.5 10.9 4.7 25.9-6.3 33.4-35.6 24.4-75.9 41-120.4 49.9 96.6 36.6 165.2 130 165.2 239.4 0 141.3-114.6 255.9-255.9 255.9s-255.9-114.7-255.9-256c0-111.6 71.4-206.5 171-241.5-45.4-9.4-87.3-25.7-125.4-48.8-51-31-94.9-74.1-130.4-128.1-59.9-91.1-75.1-181.2-75.7-185l-1.3-8.3c-2-13.1 7-25.4 20.1-27.4 1.2-0.2 2.5-0.3 3.7-0.3 11.6 0 21.9 8.5 23.7 20.4l1.2 8c0.5 2.9 14.8 84.7 68.4 166.3C271.6 240.5 376.8 296 512.3 296c66.7 0 124.6-16.5 172.1-48.9 10.9-7.6 25.8-4.8 33.3 6.2zM292.4 575.9c0 55.5 21.6 107.7 60.9 147s91.5 60.9 147 60.9 107.7-21.6 147-60.9 60.9-91.5 60.9-147-21.6-107.7-60.9-147-91.5-60.9-147-60.9-107.7 21.6-147 60.9-60.9 91.4-60.9 147zM936.5 111.9H832.9V215.5c0 13.3-10.7 24-24 24s-24-10.7-24-24v-103.6H681.3c-13.3 0-24-10.7-24-24s10.7-24 24-24h103.6v-103.6c0-13.3 10.7-24 24-24s24 10.7 24 24V63.9h103.6c13.3 0 24 10.7 24 24s-10.8 24-24 24z"  horiz-adv-x="1024" />

    
    <glyph glyph-name="guanbi" unicode="&#58888;" d="M583.168 372.224L958.464 747.52c18.944 18.944 18.944 50.176 0 69.12l-2.048 2.048c-18.944 18.944-50.176 18.944-69.12 0L512 442.88 136.704 818.688c-18.944 18.944-50.176 18.944-69.12 0l-2.048-2.048c-19.456-18.944-19.456-50.176 0-69.12l375.296-375.296L65.536-3.072c-18.944-18.944-18.944-50.176 0-69.12l2.048-2.048c18.944-18.944 50.176-18.944 69.12 0L512 301.056 887.296-74.24c18.944-18.944 50.176-18.944 69.12 0l2.048 2.048c18.944 18.944 18.944 50.176 0 69.12L583.168 372.224z"  horiz-adv-x="1024" />

    


  </font>
</defs>
</svg>
